<svg xmlns="http://www.w3.org/2000/svg" width="246.743" height="187.729" viewBox="0 0 246.743 187.729">
  <g id="Group_74" data-name="Group 74" transform="translate(0)">
    <path id="Path_134" data-name="Path 134" d="M329.971,178.431h-.9V153.772A14.272,14.272,0,0,0,314.8,139.5H262.556a14.272,14.272,0,0,0-14.272,14.272v135.28a14.272,14.272,0,0,0,14.272,14.272H314.8a14.272,14.272,0,0,0,14.272-14.272V195.983h.9Z" transform="translate(-231.237 -139.5)" fill="#3f3d56"/>
    <path id="Path_135" data-name="Path 135" d="M324.464,151.783h-6.819a5.064,5.064,0,0,1-4.688,6.976H283.027a5.064,5.064,0,0,1-4.688-6.976h-6.369a10.658,10.658,0,0,0-10.658,10.658V297.523a10.658,10.658,0,0,0,10.658,10.658h52.495a10.658,10.658,0,0,0,10.658-10.658h0V162.441a10.658,10.658,0,0,0-10.658-10.658Z" transform="translate(-240.326 -148.07)" fill="#fff"/>
    <path id="Path_136" data-name="Path 136" d="M307.371,680.1H192.194a.3.3,0,0,1,0-.6H307.371a.3.3,0,1,1,0,.6Z" transform="translate(-191.892 -516.257)" fill="#cbcbcb"/>
    <circle id="Ellipse_44" data-name="Ellipse 44" cx="25.528" cy="25.528" r="25.528" transform="translate(32.362 53.443)" fill="#45c0be"/>
    <path id="Path_395" data-name="Path 395" d="M355.026,388.137a2.648,2.648,0,0,1-1.593-.529l-.029-.021-6-4.589a2.666,2.666,0,0,1,3.244-4.232l3.886,2.98,9.183-11.98a2.665,2.665,0,0,1,3.736-.493h0l-.057.079.059-.079a2.668,2.668,0,0,1,.493,3.737l-10.8,14.085a2.667,2.667,0,0,1-2.121,1.04Z" transform="translate(-299.665 -299.427)" fill="#fff"/>
    <path id="Path_137" data-name="Path 137" d="M883.119,616.579a7.941,7.941,0,0,1,1.09-1.389c.171-.177.351-.344.536-.506a8.507,8.507,0,0,1,14.027,4.839c1.247-4.611-2-9.152-5.262-12.641s-7-7.313-6.977-12.092a9.2,9.2,0,0,1,3.274-6.79c.061-.053.121-.107.183-.158a12.416,12.416,0,0,1,8.552-2.98c5.8.311,10.872,4.212,14.391,8.839,5.665,7.445,8.147,17.9,4.181,26.37-3.488,7.454-10.928,11.88-18.521,15.438q-1.59.746-3.174,1.446l-.022.009c-.051.022-.1.045-.149.068l-.652.287.1.065.312.2-.324-.195-.1-.058c-3.729-2.237-7.51-4.6-10.086-8.1C881.829,625.609,880.754,620.414,883.119,616.579Z" transform="translate(-673.248 -450.223)" fill="#45c0be" opacity="0.39"/>
    <path id="Path_138" data-name="Path 138" d="M913.533,615.035a21.105,21.105,0,0,1,1.625,5.9,18.328,18.328,0,0,1-.221,5.445,23.481,23.481,0,0,1-4.709,10.073,33.794,33.794,0,0,1-6.1,5.931q-1.59.745-3.174,1.446l-.022.009c-.051.022-.1.045-.149.068l-.652.287.1.065.312.2-.324-.195-.1-.058a18.516,18.516,0,0,0-10.377-22.143c.171-.177.351-.344.536-.506a19.539,19.539,0,0,1,2.994,1.71,19.14,19.14,0,0,1,7.243,9.595,19.569,19.569,0,0,1,.425,10.94c.187-.122.375-.248.558-.373a34.313,34.313,0,0,0,9.087-8.607,21.845,21.845,0,0,0,3.876-9.85,19.743,19.743,0,0,0-2.241-11.157,45.723,45.723,0,0,0-7.163-10.178,51.954,51.954,0,0,0-9.606-8.26.374.374,0,0,1-.111-.5.317.317,0,0,1,.183-.158.276.276,0,0,1,.236.048c.435.291.867.584,1.294.885a52.546,52.546,0,0,1,9.6,8.772A42.309,42.309,0,0,1,913.533,615.035Z" transform="translate(-678.782 -457.102)" fill="#fff"/>
    <circle id="Ellipse_44-2" data-name="Ellipse 44" cx="5.422" cy="5.422" r="5.422" transform="translate(153.299 1.01)" fill="#45c0be" opacity="0.39"/>
    <circle id="Ellipse_44-3" data-name="Ellipse 44" cx="3.305" cy="3.305" r="3.305" transform="translate(222.829 77.795)" fill="#45c0be" opacity="0.39"/>
    <circle id="Ellipse_44-4" data-name="Ellipse 44" cx="3.305" cy="3.305" r="3.305" transform="translate(126.092 86.864)" fill="#45c0be" opacity="0.39"/>
    <path id="Path_139" data-name="Path 139" d="M625.41,759.1H740.587a.3.3,0,0,0,0-.6H625.41a.3.3,0,0,0,0,.6Z" transform="translate(-494.146 -571.375)" fill="#cbcbcb"/>
    <path id="Path_140" data-name="Path 140" d="M923.86,224.485a4.429,4.429,0,0,0-8.506-2.245l-9.346,10.715,2.742,7.659,9.4-12.52a4.406,4.406,0,0,0,5.71-3.609Z" transform="translate(-690.13 -195.272)" fill="#ffb7b7"/>
    <path id="Path_141" data-name="Path 141" d="M617.149,142.776l31.025-33.111-4.185-6.653-38.913,32.91Z" transform="translate(-422.161 -71.871)" fill="#3f3d56"/>
    <circle id="Ellipse_31" data-name="Ellipse 31" cx="10.883" cy="10.883" r="10.883" transform="translate(177.181 29.021)" fill="#2f2e41"/>
    <path id="Path_142" data-name="Path 142" d="M816.894,236.6a22.82,22.82,0,0,1,8.3-5.369,11.68,11.68,0,0,1,6.289-.781,5.994,5.994,0,0,1,4.668,3.932,7.422,7.422,0,0,1-.758,5.08c-.743,1.585-1.734,3.054-2.335,4.7a10.722,10.722,0,0,0,10.789,14.378c-2.062.276-3.962,1.245-5.977,1.761s-4.393.481-5.891-.963c-1.584-1.527-1.616-4.011-1.539-6.21l.342-9.808a12.458,12.458,0,0,0-.494-4.944,4.246,4.246,0,0,0-3.7-2.9,6.068,6.068,0,0,0-3.4,1.532,6.942,6.942,0,0,1-3.347,1.674c-1.259.112-2.7-.82-2.6-2.081Z" transform="translate(-627.955 -202.843)" fill="#2f2e41"/>
    <path id="Path_143" data-name="Path 143" d="M664.308,469.82a4.429,4.429,0,0,1-3.337-8.139l9.4-10.666,7.952,1.718-11.184,10.955a4.405,4.405,0,0,1-2.832,6.133Z" transform="translate(-517.578 -356.843)" fill="#ffb7b7"/>
    <path id="Path_144" data-name="Path 144" d="M517.131,208.757,493.7,238.171l-7.143-3.279,27.543-42.88Z" transform="translate(-339.469 -133.966)" fill="#3f3d56"/>
    <path id="Path_145" data-name="Path 145" d="M512.959,541.009l-5.585-.088.672,19.035h4.912Z" transform="translate(-353.994 -377.4)" fill="#ffb7b7"/>
    <path id="Path_146" data-name="Path 146" d="M685.325,738.081h-9.674a6.165,6.165,0,0,0-6.165,6.165v.2h15.839Z" transform="translate(-525.109 -557.129)" fill="#2f2e41"/>
    <path id="Path_147" data-name="Path 147" d="M634.085,524.511l-6.1,3.917,12.2,14.681,4.134-2.654Z" transform="translate(-438.144 -365.95)" fill="#ffb7b7"/>
    <path id="Path_148" data-name="Path 148" d="M849.208,710.049l-8.141,5.227h0a6.165,6.165,0,0,0-1.857,8.519l.108.169,13.329-8.557Z" transform="translate(-642.843 -537.571)" fill="#2f2e41"/>
    <path id="Path_149" data-name="Path 149" d="M737,366.378s-13.555-45.021-17.911-45.629S707.709,332.3,707.709,332.3c-9.1,11.611-18.484,49.221-18.484,49.221s15.643.979,27.078,7.063,24.93-.308,24.93-.308Z" transform="translate(-538.881 -265.942)" fill="#3f3d56"/>
    <path id="Path_150" data-name="Path 150" d="M737,366.379s-13.555-45.021-17.911-45.629-9.592,11.675-9.592,11.675c-4.534,18.743-20.267,49.1-20.267,49.1s15.643.979,27.078,7.063,24.93-.308,24.93-.308Z" transform="translate(-538.881 -265.942)" opacity="0.1"/>
    <path id="Path_151" data-name="Path 151" d="M536.8,280.438v22.623l2.662,32.771,13.3,24.789-6.348,4.535-18.138-23.58L521.1,318.163l-11.266,51.829-8.464-.6,5.879-71.86L518.408,277.3Z" transform="translate(-349.808 -193.472)" fill="#2f2e41"/>
    <path id="Path_152" data-name="Path 152" d="M753.389,331.078c-4.232,4.232-.3,8.767-.3,8.767l-4.837,10.883,19.045,5.139,6.656-29.74-4.534-4.837c-9.069-.3-9.074-.49-9.074-.49C758.753,322.355,753.389,331.078,753.389,331.078Z" transform="translate(-580.062 -265.993)" fill="#45c0be"/>
    <path id="Path_153" data-name="Path 153" d="M795.4,324.564a8.127,8.127,0,0,0-11.42,1.788c-4.788,6.666-9.215,17.431-3.115,30.857,9.794,21.557,18.318,32.592,21.782,32.591a1.378,1.378,0,0,0,.445-.07c2.133-.724,5.216-4.333,5.775-7.513a3.81,3.81,0,0,0-1.209-3.813c-3.91-3.128-10.931-12.866-13.12-25.685-1.21-7.083,1.137-13.535,3.319-17.7a8.126,8.126,0,0,0-2.351-10.378h0Z" transform="translate(-600.742 -267.511)" fill="#3f3d56"/>
    <circle id="Ellipse_32" data-name="Ellipse 32" cx="8.011" cy="8.011" r="8.011" transform="translate(173.908 39.501) rotate(-28.663)" fill="#ffb7b7"/>
    <path id="Path_154" data-name="Path 154" d="M765.872,258.382H777.44l.119-1.661.593,1.661h1.781l.235-3.292,1.175,3.292h3.447v-.163a8.653,8.653,0,0,0-8.643-8.643h-1.631a8.653,8.653,0,0,0-8.643,8.644Z" transform="translate(-592.357 -216.299)" fill="#2f2e41"/>
    <path id="Path_155" data-name="Path 155" d="M812.544,267.09l4.937-1.6V253.5h-9.324l.231.23C811.6,256.938,815.171,268.319,812.544,267.09Z" transform="translate(-621.859 -219.038)" fill="#2f2e41"/>
  </g>
</svg>
