<svg xmlns="http://www.w3.org/2000/svg" width="318.347" height="236.366" viewBox="0 0 318.347 236.366">
  <g id="Group_1784" data-name="Group 1784" transform="translate(0)">
    <path id="Path_133" data-name="Path 133" d="M255.284,449.539a155.693,155.693,0,0,0,7.274,43.039c.1.323.207.642.314.965h27.142c-.029-.29-.058-.613-.087-.965-1.81-20.806,8.529-145.923,21-167.578C309.84,326.757,253.18,383.431,255.284,449.539Z" transform="translate(-236.075 -257.583)" fill="#e6e6e6"/>
    <path id="Path_134" data-name="Path 134" d="M229.316,603.32c.227.323.463.647.7.965h20.363c-.154-.275-.333-.6-.541-.965-3.364-6.071-13.32-24.222-22.562-43.039-9.928-20.221-19.044-41.209-18.276-48.806C208.767,513.188,201.894,565.416,229.316,603.32Z" transform="translate(-208.07 -368.325)" fill="#e6e6e6"/>
    <path id="Path_1948" data-name="Path 1948" d="M431.63,552.35a4.7,4.7,0,0,0-.136.728l-19.608,10.3-4.553-2.867-5.225,6.305,7.567,5.859a3.573,3.573,0,0,0,4.287.066l20.385-14.809a4.688,4.688,0,1,0-2.717-5.579Z" transform="translate(-323.304 -390.558)" fill="#9e616a"/>
    <path id="Path_1949" data-name="Path 1949" d="M310.678,542.552l3.932-2.529-7.881-16.367-5.8,3.732Z" transform="translate(-178.712 -310.985)" fill="#9e616a"/>
    <path id="Path_1950" data-name="Path 1950" d="M528.506,718.965l7.742-4.979h0a5.867,5.867,0,0,1,8.107,1.761l.1.16-12.676,8.152Z" transform="translate(-398.368 -488.036)" fill="#2f2e41"/>
    <path id="Path_1951" data-name="Path 1951" d="M360.456,631.69l30.178-19.322s5.545-.535,8.873,6.023l20.1,28.871-8.575,5.8-22.3-23.158-15.3,15.136s22.548-3.7,21.786,11.172c-.605,11.8-31.466,7.753-44.179,5.579a16.671,16.671,0,0,1-11.682-8c-1.363-2.365-2.1-5.05-.951-7.588C341.452,639.438,360.456,631.69,360.456,631.69Z" transform="translate(-285.132 -428.237)" fill="#2f2e41"/>
    <path id="Path_1952" data-name="Path 1952" d="M343.986,615.092l-8.7-1.76,2.478-42.685,10.007-12.257,5.962-1.055a7.2,7.2,0,0,1,8.241,5.215l2.628,9.6c4.459,7.549-1.787,16.3-2.364,17.081l.325,13.239Z" transform="translate(-283.622 -395.491)" fill="#45c0be"/>
    <path id="Path_1953" data-name="Path 1953" d="M376.642,560.142l.552-1.952s5.988-4.414,15.139,7.024l-4.385,7.816-9.532-.381Z" transform="translate(-308.18 -395.57)" fill="#45c0be"/>
    <path id="Path_1954" data-name="Path 1954" d="M367.4,503.11c1.7,6.954-4.991,7.471-12.923,9.406s-14.106,4.555-15.8-2.4-1.562-20.048,9.659-22.785C359.94,484.5,365.7,496.156,367.4,503.11Z" transform="translate(-285.161 -353.729)" fill="#2f2e41"/>
    <circle id="Ellipse_139" data-name="Ellipse 139" cx="9.948" cy="9.948" r="9.948" transform="translate(56.957 139.175)" fill="#9e616a"/>
    <path id="Path_1955" data-name="Path 1955" d="M344.3,510.8h0l3.823-.932.535-5.133,1.489,4.64,1.827-.446.312-2.994.869,2.707,13.576-3.312h0a10.531,10.531,0,0,0-12.727-7.735l-1.968.48A10.531,10.531,0,0,0,344.3,510.8Z" transform="translate(-288.795 -359.902)" fill="#2f2e41"/>
    <path id="Path_1956" data-name="Path 1956" d="M372.985,620.305a4.7,4.7,0,0,0-.7.243l-18.664-11.924.233-5.375-8.066-1.412-1.337,9.476a3.573,3.573,0,0,0,2.068,3.756l22.967,10.362a4.688,4.688,0,1,0,3.5-5.126Z" transform="translate(-289.042 -421.989)" fill="#9e616a"/>
    <path id="Path_1957" data-name="Path 1957" d="M352.914,562.032l-1.406-1.773s-5.648-1.819-8.7,5.806a22.611,22.611,0,0,0-.191,15.06l13.344,1.144.953-12.391Z" transform="translate(-287.253 -397.184)" fill="#45c0be"/>
    <path id="Path_1958" data-name="Path 1958" d="M527.283,130.684h104.2v34.208h-3.947v8.947l-8.947-8.947H527.283Z" transform="translate(-313.139 -77.61)" fill="#e6e6e6"/>
    <rect id="Rectangle_403" data-name="Rectangle 403" width="98.414" height="27.367" transform="translate(217.039 56.405)" fill="#fff"/>
    <rect id="Rectangle_404" data-name="Rectangle 404" width="47.384" height="1.438" transform="translate(224.952 64.395)" fill="#45c0be"/>
    <rect id="Rectangle_405" data-name="Rectangle 405" width="82.586" height="1.438" transform="translate(224.952 69.37)" fill="#e6e6e6"/>
    <rect id="Rectangle_406" data-name="Rectangle 406" width="82.505" height="1.438" transform="translate(224.952 74.344)" fill="#e6e6e6"/>
    <path id="Path_1959" data-name="Path 1959" d="M478.131,0h-104.2V34.208h3.947v8.947l8.947-8.947h91.31Z" transform="translate(-222.066)" fill="#e6e6e6"/>
    <rect id="Rectangle_407" data-name="Rectangle 407" width="98.414" height="27.367" transform="translate(154.757 3.331)" fill="#fff"/>
    <rect id="Rectangle_408" data-name="Rectangle 408" width="47.384" height="1.438" transform="translate(163.46 11.584)" fill="#45c0be"/>
    <rect id="Rectangle_409" data-name="Rectangle 409" width="82.586" height="1.438" transform="translate(163.46 16.559)" fill="#e6e6e6"/>
    <rect id="Rectangle_410" data-name="Rectangle 410" width="82.505" height="1.438" transform="translate(163.46 21.533)" fill="#e6e6e6"/>
    <path id="Path_1960" data-name="Path 1960" d="M496.455,526.978h-.185v-5.054A2.925,2.925,0,0,0,493.345,519H482.639a2.925,2.925,0,0,0-2.925,2.925v27.724a2.925,2.925,0,0,0,2.925,2.925h10.707a2.925,2.925,0,0,0,2.925-2.925V530.575h.184Z" transform="translate(-369.392 -372.794)" fill="#3f3d56"/>
    <path id="Path_1961" data-name="Path 1961" d="M494.644,520.874h-1.4a1.038,1.038,0,0,1-.961,1.43h-6.134a1.038,1.038,0,0,1-.961-1.43h-1.305a2.184,2.184,0,0,0-2.184,2.184v27.683a2.184,2.184,0,0,0,2.184,2.184h10.758a2.184,2.184,0,0,0,2.184-2.184h0V523.058a2.184,2.184,0,0,0-2.184-2.184Z" transform="translate(-370.572 -373.907)" fill="#fff"/>
    <path id="Path_1962" data-name="Path 1962" d="M411.4,248.549H283.441v42.006h4.847v10.986l10.986-10.986H411.4Z" transform="translate(-168.328 -147.606)" fill="#fff"/>
    <path id="Path_1963" data-name="Path 1963" d="M495.358,460.927v-11.56h-4.847V406.549H619.279v42.818H506.918Zm-4.035-12.373h4.847v10.412l10.412-10.412H618.467V407.361H491.323Z" transform="translate(-375.804 -306.013)" fill="#3f3d56"/>
    <rect id="Rectangle_411" data-name="Rectangle 411" width="58.185" height="1.766" transform="translate(129.355 115.168)" fill="#45c0be"/>
    <rect id="Rectangle_412" data-name="Rectangle 412" width="101.412" height="1.766" transform="translate(129.355 121.276)" fill="#e6e6e6"/>
    <rect id="Rectangle_413" data-name="Rectangle 413" width="101.313" height="1.766" transform="translate(129.355 127.384)" fill="#e6e6e6"/>
    <path id="Path_1964" data-name="Path 1964" d="M410.1,739.812H255.368a.406.406,0,0,1,0-.812H410.1a.406.406,0,0,1,0,.812Z" transform="translate(-235.918 -503.446)" fill="#3f3d56"/>
  </g>
</svg>
