<svg xmlns="http://www.w3.org/2000/svg" width="306.783" height="183.4" viewBox="0 0 306.783 183.4">
  <g id="Group_16" data-name="Group 16" transform="translate(0 0)">
    <path id="Path_102" data-name="Path 102" d="M820.468,596.392a15.853,15.853,0,0,1-5.688-13.666c.626-5.1,4.5-9.8,9.527-10.88s10.756,1.916,12.283,6.827c.84-9.467,1.808-19.33,6.842-27.392a29.009,29.009,0,0,1,21.005-13.457,26.028,26.028,0,0,1,22.9,9.347,23.622,23.622,0,0,1,2.9,24.32c-2.753,5.711-7.824,9.961-13.138,13.418A84.789,84.789,0,0,1,819.111,597.6Z" transform="translate(-585.588 -415.052)" fill="#e3f6f5"/>
    <path id="Path_103" data-name="Path 103" d="M921.143,545.653a139.906,139.906,0,0,0-41.108,55.586c-.392.961,1.168,1.379,1.556.429a138.349,138.349,0,0,1,40.693-54.875c.806-.656-.342-1.791-1.141-1.141Z" transform="translate(-627.855 -420.09)" fill="#fff"/>
    <path id="Path_104" data-name="Path 104" d="M263.758,553.573c5.395-4.558,8.671-11.759,7.812-18.77s-6.182-13.455-13.086-14.943-14.774,2.632-16.871,9.376c-1.154-13-2.484-26.55-9.4-37.623a39.844,39.844,0,0,0-28.851-18.484c-11.75-1.283-24.121,3.564-31.449,12.838s-9.122,22.757-3.99,33.4c3.781,7.844,10.746,13.681,18.045,18.43a116.457,116.457,0,0,0,79.65,17.425" transform="translate(-165 -373.135)" fill="#e3f6f5"/>
    <path id="Path_105" data-name="Path 105" d="M214,483.883a190.543,190.543,0,0,1,26.554,26.368,191.095,191.095,0,0,1,29.908,49.98c.539,1.32-1.6,1.894-2.137.589a189.137,189.137,0,0,0-17.282-32.7,189.86,189.86,0,0,0-38.611-42.672c-1.106-.9.47-2.461,1.567-1.567Z" transform="translate(-195.462 -380.055)" fill="#fff"/>
    <path id="Path_106" data-name="Path 106" d="M553.208,372.943H424.5V240.885a51.012,51.012,0,0,1,50.954-50.954h26.8a51.012,51.012,0,0,1,50.954,50.954Z" transform="translate(-332.994 -189.931)" fill="#e3f6f5"/>
    <path id="Path_107" data-name="Path 107" d="M526.408,372.946H424.5V240.888a50.56,50.56,0,0,1,9.731-29.953c.234-.319.468-.634.708-.945a50.943,50.943,0,0,1,10.845-10.526c.233-.169.466-.336.7-.5a50.833,50.833,0,0,1,11.1-5.8c.233-.088.47-.177.708-.262a50.785,50.785,0,0,1,10.97-2.587c.232-.032.47-.056.708-.081a51.584,51.584,0,0,1,10.969,0c.237.025.476.05.71.082a50.777,50.777,0,0,1,10.967,2.586c.237.085.475.173.708.262a50.709,50.709,0,0,1,10.969,5.718c.237.163.474.329.707.5a51.48,51.48,0,0,1,6.482,5.488,50.877,50.877,0,0,1,4.487,5.131c.24.31.474.625.707.944a50.56,50.56,0,0,1,9.731,29.954Z" transform="translate(-332.994 -189.933)" fill="#ccc"/>
    <circle id="Ellipse_19" data-name="Ellipse 19" cx="5.642" cy="5.642" r="5.642" transform="translate(179.486 112.664)" fill="#45c0be"/>
    <path id="Path_108" data-name="Path 108" d="M582.886,477.17h-4.323l-2.057-16.675h6.381Z" transform="translate(-373.216 -298.113)" fill="#ffb8b8"/>
    <path id="Path_109" data-name="Path 109" d="M563.945,504.28h8.337v5.249H558.7a5.249,5.249,0,0,1,5.249-5.249Z" transform="translate(-361.685 -326.458)" fill="#2f2e41"/>
    <path id="Path_110" data-name="Path 110" d="M643.886,477.17h-4.323l-2.057-16.675h6.381Z" transform="translate(-412.706 -298.113)" fill="#ffb8b8"/>
    <path id="Path_111" data-name="Path 111" d="M624.945,504.28h8.337v5.249H619.7a5.249,5.249,0,0,1,5.249-5.249Z" transform="translate(-401.175 -326.458)" fill="#2f2e41"/>
    <path id="Path_112" data-name="Path 112" d="M696.9,443.982a3.788,3.788,0,0,1,1.591-5.587l14.7-40.5,7.231,3.947-16.78,38.708a3.809,3.809,0,0,1-6.738,3.437Z" transform="translate(-508.914 -324.558)" fill="#ffb8b8"/>
    <path id="Path_113" data-name="Path 113" d="M804.105,461.024a3.788,3.788,0,0,1-1.02-5.718l-4.552-42.847,8.229.376,1.892,42.146a3.809,3.809,0,0,1-4.549,6.044Z" transform="translate(-575.134 -333.989)" fill="#ffb8b8"/>
    <circle id="Ellipse_20" data-name="Ellipse 20" cx="8.661" cy="8.661" r="8.661" transform="translate(207.183 48.508)" fill="#ffb8b8"/>
    <path id="Path_114" data-name="Path 114" d="M766.244,433.94H740.133l.031-.2c.047-.3,4.653-30.481,1.256-40.353a4.166,4.166,0,0,1,2.14-5.142h0c4.856-2.287,14.178-5.1,22.046,1.731a9.956,9.956,0,0,1,3.336,8.25Z" transform="translate(-537.327 -316.65)" fill="#45c0be"/>
    <path id="Path_115" data-name="Path 115" d="M732.773,413.032l-11.755-2.385,5.51-13.058a4.936,4.936,0,1,1,9.558,2.468Z" transform="translate(-524.952 -321.966)" fill="#45c0be"/>
    <path id="Path_116" data-name="Path 116" d="M795.575,419.138l-.707-16.2c-.536-3.045,1.207-5.924,3.889-6.395s5.3,1.643,5.839,4.711l2.656,15.137Z" transform="translate(-572.698 -323.644)" fill="#45c0be"/>
    <path id="Path_117" data-name="Path 117" d="M762.792,517.049c4.2,16,4.66,36.345,3.526,58.536l-5.642-.705-10.226-42.315-5.642,43.02-6.347-.353c-1.9-23.284-3.743-43.272-.705-56.42Z" transform="translate(-534.745 -401.699)" fill="#2f2e41"/>
    <path id="Path_118" data-name="Path 118" d="M763.723,335.519a2.8,2.8,0,0,1-4.827-1.554,2.831,2.831,0,0,1,0-.549c.109-1.042.71-1.987.566-3.087a1.618,1.618,0,0,0-.3-.758c-1.287-1.724-4.31.771-5.525-.79-.745-.957.131-2.464-.441-3.533-.755-1.412-2.99-.715-4.392-1.488-1.56-.86-1.466-3.253-.44-4.708a7.406,7.406,0,0,1,5.615-2.859,15.062,15.062,0,0,1,6.345,1.238,12.679,12.679,0,0,1,5.995,4.157,10.147,10.147,0,0,1,1.026,8.64C766.829,331.977,765.042,334.113,763.723,335.519Z" transform="translate(-542.172 -271.657)" fill="#2f2e41"/>
    <path id="Path_119" data-name="Path 119" d="M526.256,708.032H265.915a.42.42,0,0,1,0-.84H526.256a.42.42,0,0,1,0,.84Z" transform="translate(-230.058 -524.793)" fill="#6c6a7d"/>
    <path id="Path_120" data-name="Path 120" d="M545.633,404.276H499.792a2.28,2.28,0,0,1-2.292-2.262V299.693a2.28,2.28,0,0,1,2.292-2.262h45.841a2.28,2.28,0,0,1,2.292,2.262V402.014A2.28,2.28,0,0,1,545.633,404.276Z" transform="translate(-380.252 -259.523)" fill="#fff"/>
    <rect id="Rectangle_9" data-name="Rectangle 9" width="50.425" height="0.705" transform="translate(117.248 71.015)" fill="#ccc"/>
    <rect id="Rectangle_10" data-name="Rectangle 10" width="50.425" height="0.705" transform="translate(117.424 111.253)" fill="#ccc"/>
    <rect id="Rectangle_11" data-name="Rectangle 11" width="0.705" height="107.198" transform="translate(133.116 37.907)" fill="#ccc"/>
    <rect id="Rectangle_12" data-name="Rectangle 12" width="0.705" height="107.198" transform="translate(150.747 37.907)" fill="#ccc"/>
  </g>
</svg>
