<svg xmlns="http://www.w3.org/2000/svg" width="14" height="12.444" viewBox="0 0 14 12.444">
  <path id="Icon_awesome-map-marked-alt" data-name="Icon awesome-map-marked-alt" d="M7,0A3.062,3.062,0,0,0,3.937,3.063c0,1.367,2,3.86,2.768,4.764a.383.383,0,0,0,.588,0c.767-.9,2.768-3.4,2.768-4.764A3.062,3.062,0,0,0,7,0ZM7,4.083A1.021,1.021,0,1,1,8.021,3.063,1.021,1.021,0,0,1,7,4.083ZM.489,5.249A.778.778,0,0,0,0,5.971v6.084a.389.389,0,0,0,.533.361l3.356-1.527V5.224A7.361,7.361,0,0,1,3.372,4.1ZM7,8.742a1.161,1.161,0,0,1-.887-.412c-.478-.564-.986-1.206-1.446-1.865v4.424l4.667,1.556V6.465c-.46.658-.968,1.3-1.446,1.865A1.162,1.162,0,0,1,7,8.742Zm6.467-4.825L10.111,5.444v7l3.4-1.36A.778.778,0,0,0,14,10.362V4.278A.389.389,0,0,0,13.467,3.917Z" fill="#f8f8f8"/>
</svg>
