<svg xmlns="http://www.w3.org/2000/svg" width="117" height="114.132" viewBox="0 0 117 114.132">
  <g id="Group_421" data-name="Group 421" transform="translate(-112 -310)">
    <g id="Group_420" data-name="Group 420" transform="translate(112 310)">
      <path id="Path_338" data-name="Path 338" d="M382.616,182.683H351.05a2.714,2.714,0,0,0-2.713,2.707v70l-.362.11-7.744,2.366a1.449,1.449,0,0,1-1.807-.958L315.39,181.836a1.444,1.444,0,0,1,.961-1.8l11.933-3.646,34.594-10.565,11.933-3.646a1.446,1.446,0,0,1,1.807.957l5.888,19.188Z" transform="translate(-308.246 -157.013)" fill="#f2f2f2"/>
      <path id="Path_339" data-name="Path 339" d="M357.441,159.22l-7.1-23.131a3.075,3.075,0,0,0-3.84-2.036l-16.777,5.125-34.592,10.569-16.777,5.127a3.07,3.07,0,0,0-2.04,3.832l24.253,79.053a3.079,3.079,0,0,0,2.941,2.172,3.042,3.042,0,0,0,.9-.135l11.5-3.513.362-.112v-.377l-.362.11L304.3,239.449a2.717,2.717,0,0,1-3.388-1.8L276.665,158.6a2.7,2.7,0,0,1,1.8-3.381l16.777-5.127,34.592-10.567,16.777-5.127a2.747,2.747,0,0,1,.8-.119,2.715,2.715,0,0,1,2.59,1.915l7.064,23.026.112.361h.376Z" transform="translate(-276.183 -133.917)" fill="#3f3d56"/>
      <path id="Path_340" data-name="Path 340" d="M380.934,168.406a1.631,1.631,0,0,1-1.558-1.152l-2.33-7.61a1.628,1.628,0,0,1,1.08-2.033l31.825-9.743a1.63,1.63,0,0,1,2.033,1.08l2.33,7.61a1.63,1.63,0,0,1-1.08,2.033l-31.825,9.743A1.624,1.624,0,0,1,380.934,168.406Z" transform="translate(-358.776 -145.286)" fill="#45c0be"/>
      <circle id="Ellipse_74" data-name="Ellipse 74" cx="3.618" cy="3.618" r="3.618" transform="translate(30.737 0.896)" fill="#45c0be"/>
      <circle id="Ellipse_75" data-name="Ellipse 75" cx="2.291" cy="2.291" r="2.291" transform="translate(32.063 2.222)" fill="#fff"/>
      <path id="Path_341" data-name="Path 341" d="M594.995,370.421H533.856a1.539,1.539,0,0,1-1.538-1.538V295.625a1.539,1.539,0,0,1,1.538-1.538h61.139a1.539,1.539,0,0,1,1.538,1.538v73.259A1.539,1.539,0,0,1,594.995,370.421Z" transform="translate(-486.436 -265.41)" fill="#e6e6e6"/>
      <path id="Path_342" data-name="Path 342" d="M536.969,274.087H498.893a3.079,3.079,0,0,0-3.075,3.075v73.765l.362-.11V277.162a2.716,2.716,0,0,1,2.713-2.713h38.188Zm33.193,0H498.893a3.079,3.079,0,0,0-3.075,3.075v82.846a3.079,3.079,0,0,0,3.075,3.075h71.269a3.079,3.079,0,0,0,3.075-3.075V277.162A3.079,3.079,0,0,0,570.162,274.087Zm2.713,85.921a2.717,2.717,0,0,1-2.713,2.713H498.893a2.717,2.717,0,0,1-2.713-2.713V277.162a2.716,2.716,0,0,1,2.713-2.713h71.269a2.717,2.717,0,0,1,2.713,2.713Z" transform="translate(-456.237 -248.95)" fill="#3f3d56"/>
      <path id="Path_343" data-name="Path 343" d="M643.729,267.3H610.446a1.63,1.63,0,0,1-1.628-1.628v-7.959a1.63,1.63,0,0,1,1.628-1.628h33.283a1.63,1.63,0,0,1,1.628,1.628v7.959A1.63,1.63,0,0,1,643.729,267.3Z" transform="translate(-548.759 -234.035)" fill="#45c0be"/>
      <circle id="Ellipse_76" data-name="Ellipse 76" cx="3.618" cy="3.618" r="3.618" transform="translate(74.72 15.406)" fill="#45c0be"/>
      <circle id="Ellipse_77" data-name="Ellipse 77" cx="2.204" cy="2.204" r="2.204" transform="translate(76.135 16.82)" fill="#fff"/>
    </g>
    <text id="_" data-name="!" transform="translate(183 396)" fill="#45c0be" font-size="45" font-family="SegoeUI-Bold, Segoe UI" font-weight="700"><tspan x="0" y="0">!</tspan></text>
  </g>
</svg>
