<svg xmlns="http://www.w3.org/2000/svg" width="349.928" height="269" viewBox="0 0 349.928 269">
  <g id="Group_8" data-name="Group 8" transform="translate(-39 -167)">
    <circle id="Ellipse_8" data-name="Ellipse 8" cx="134.5" cy="134.5" r="134.5" transform="translate(80 167)" fill="#45c0be" opacity="0.15"/>
    <path id="Path_1" data-name="Path 1" d="M618.535,412.839H413.23a3.287,3.287,0,1,0,0,6.574h5.815v78.633a3.287,3.287,0,1,0,6.574,0l.05-78.633H590.447l15.193,78.633a3.287,3.287,0,1,0,6.574,0l.956-78.633h5.365a3.287,3.287,0,1,0,0-6.574Z" transform="translate(-263.889 -66.217)" fill="#ccc"/>
    <path id="Path_2" data-name="Path 2" d="M443.052,371.842v13.919H408.18a6.964,6.964,0,0,1-.484-13.919q.242-.008.484,0Z" transform="translate(-258.125 -39.866)" fill="#f2f2f2"/>
    <path id="Path_3" data-name="Path 3" d="M442.561,385.085a.535.535,0,0,1-.535.535H406.211a7.334,7.334,0,1,1,0-14.669h35.815a.535.535,0,0,1,0,1.071H406.211a6.264,6.264,0,0,0,0,12.527h35.815a.536.536,0,0,1,.535.535Z" transform="translate(-256.777 -39.297)" fill="#45c0be"/>
    <path id="Path_4" data-name="Path 4" d="M451.139,380.455H413.665a.107.107,0,0,1,0-.214h37.476a.107.107,0,1,1,0,.214Z" transform="translate(-266.212 -45.266)" fill="#ccc"/>
    <path id="Path_5" data-name="Path 5" d="M451.139,387.647H413.665a.107.107,0,0,1,0-.214h37.476a.107.107,0,1,1,0,.214Z" transform="translate(-266.212 -49.889)" fill="#ccc"/>
    <path id="Path_6" data-name="Path 6" d="M451.139,394.838H413.665a.107.107,0,0,1,0-.214h37.476a.107.107,0,1,1,0,.214Z" transform="translate(-266.212 -54.51)" fill="#ccc"/>
    <path id="Path_7" data-name="Path 7" d="M451.139,402.03H413.665a.107.107,0,0,1,0-.214h37.476a.107.107,0,1,1,0,.214Z" transform="translate(-266.212 -59.132)" fill="#ccc"/>
    <path id="Path_8" data-name="Path 8" d="M424.655,330.8v13.919H389.782A6.964,6.964,0,1,1,389.3,330.8q.242-.008.484,0Z" transform="translate(-246.301 -13.49)" fill="#f2f2f2"/>
    <path id="Path_9" data-name="Path 9" d="M424.164,344.043a.536.536,0,0,1-.535.535H387.813a7.334,7.334,0,0,1,0-14.669h35.815a.535.535,0,1,1,0,1.071H387.813a6.264,6.264,0,0,0,0,12.527h35.815a.536.536,0,0,1,.536.535Z" transform="translate(-244.953 -12.92)" fill="#3f3d56"/>
    <path id="Path_10" data-name="Path 10" d="M432.741,339.414H395.267a.107.107,0,1,1,0-.214h37.476a.107.107,0,0,1,0,.214Z" transform="translate(-254.387 -18.89)" fill="#ccc"/>
    <path id="Path_11" data-name="Path 11" d="M432.741,346.606H395.267a.107.107,0,1,1,0-.214h37.476a.107.107,0,0,1,0,.214Z" transform="translate(-254.387 -23.512)" fill="#ccc"/>
    <path id="Path_12" data-name="Path 12" d="M432.741,353.8H395.267a.107.107,0,1,1,0-.214h37.476a.107.107,0,0,1,0,.214Z" transform="translate(-254.387 -28.134)" fill="#ccc"/>
    <path id="Path_13" data-name="Path 13" d="M432.741,360.989H395.267a.107.107,0,1,1,0-.214h37.476a.107.107,0,0,1,0,.214Z" transform="translate(-254.387 -32.756)" fill="#ccc"/>
    <path id="Path_14" data-name="Path 14" d="M523.829,525.216V513.08a2.023,2.023,0,0,0-2.023-2.023H475.79a2.023,2.023,0,0,0-2.023,2.023v12.136Z" transform="translate(-304.908 -129.34)" fill="#ccc"/>
    <rect id="Rectangle_2" data-name="Rectangle 2" width="50.062" height="15.676" transform="translate(168.859 400.427)" fill="#ccc"/>
    <path id="Path_15" data-name="Path 15" d="M473.768,620.029v12.136a2.023,2.023,0,0,0,2.023,2.023h46.017a2.023,2.023,0,0,0,2.023-2.023V620.029Z" transform="translate(-304.908 -199.375)" fill="#ccc"/>
    <circle id="Ellipse_1" data-name="Ellipse 1" cx="1.517" cy="1.517" r="1.517" transform="translate(192.12 387.785)" fill="#fff"/>
    <circle id="Ellipse_2" data-name="Ellipse 2" cx="1.517" cy="1.517" r="1.517" transform="translate(192.12 408.013)" fill="#fff"/>
    <circle id="Ellipse_3" data-name="Ellipse 3" cx="1.517" cy="1.517" r="1.517" transform="translate(192.202 427.811)" fill="#fff"/>
    <path id="Path_16" data-name="Path 16" d="M522.3,472.323v13.919H487.432a6.964,6.964,0,1,1-.485-13.919q.242-.008.485,0Z" transform="translate(-309.059 -104.444)" fill="#f2f2f2"/>
    <path id="Path_17" data-name="Path 17" d="M521.805,485.565a.536.536,0,0,1-.535.535H485.455a7.334,7.334,0,1,1-.009-14.669H521.27a.535.535,0,0,1,0,1.071H485.455a6.264,6.264,0,1,0,0,12.527H521.27A.536.536,0,0,1,521.805,485.565Z" transform="translate(-307.703 -103.874)" fill="#3f3d56"/>
    <path id="Path_18" data-name="Path 18" d="M530.391,480.935H492.917a.107.107,0,0,1,0-.214h37.476a.107.107,0,1,1,0,.214Z" transform="translate(-317.146 -109.843)" fill="#ccc"/>
    <path id="Path_19" data-name="Path 19" d="M530.391,488.127H492.917a.107.107,0,0,1,0-.214h37.476a.107.107,0,1,1,0,.214Z" transform="translate(-317.146 -114.466)" fill="#ccc"/>
    <path id="Path_20" data-name="Path 20" d="M530.391,495.318H492.917a.107.107,0,0,1,0-.214h37.476a.107.107,0,1,1,0,.214Z" transform="translate(-317.146 -119.087)" fill="#ccc"/>
    <path id="Path_21" data-name="Path 21" d="M530.391,502.51H492.917a.107.107,0,0,1,0-.214h37.476a.107.107,0,1,1,0,.214Z" transform="translate(-317.146 -123.709)" fill="#ccc"/>
    <path id="Path_22" data-name="Path 22" d="M445.995,317.811H430.107a.981.981,0,0,0-.435.1l-4.01,2.008a.731.731,0,0,0,0,1.345l4.01,2.008a.982.982,0,0,0,.435.1H446a.834.834,0,0,0,.88-.774v-4.015A.834.834,0,0,0,445.995,317.811Z" transform="translate(-273.706 -5.143)" fill="#3f3d56"/>
    <path id="Path_23" data-name="Path 23" d="M478.554,318.585V322.6a.834.834,0,0,1-.88.774h-3.165v-5.562h3.165a.834.834,0,0,1,.88.774Z" transform="translate(-305.384 -5.143)" fill="#45c0be"/>
    <path id="Path_29" data-name="Path 29" d="M697.024,395.559l-1.677-.706-1.151-8.41H678.871l-1.247,8.375-1.5.75a.356.356,0,0,0,.159.675h20.6a.356.356,0,0,0,.138-.685Z" transform="translate(-434.832 -49.252)" fill="#e6e6e6"/>
    <path id="Path_30" data-name="Path 30" d="M673.111,367.8H597.83a1.491,1.491,0,0,1-1.488-1.491V355.691H674.6v10.615a1.491,1.491,0,0,1-1.488,1.491Z" transform="translate(-383.685 -29.489)" fill="#ccc"/>
    <path id="Path_31" data-name="Path 31" d="M674.554,284.8h-78.4V239.379a1.8,1.8,0,0,1,1.8-1.8h74.808a1.8,1.8,0,0,1,1.8,1.8Z" transform="translate(-383.562 46.419)" fill="#3f3d56"/>
    <path id="Path_32" data-name="Path 32" d="M675.8,287.434H606.762a1.388,1.388,0,0,1-1.386-1.386V248.194a1.388,1.388,0,0,1,1.386-1.386H675.8a1.388,1.388,0,0,1,1.386,1.386v37.854A1.388,1.388,0,0,1,675.8,287.434Z" transform="translate(-389.491 40.489)" fill="#fff"/>
    <path id="Path_33" data-name="Path 33" d="M749.131,395.905a4.15,4.15,0,0,1,6.312.812l9.338-1.66,2.393,5.429-13.22,2.159a4.173,4.173,0,0,1-4.823-6.74Z" transform="translate(-481.005 -54.626)" fill="#ffb6b6"/>
    <path id="Path_34" data-name="Path 34" d="M775.776,367.713l9.735-.121,1.232-.017,19.807-.25s5.379-5.131,10.062-10.414l-.657-4.748a19.4,19.4,0,0,0-6.5-12.011c-6.708,4.482-10.6,13.354-10.6,13.354l-12.281,2.937-1.229.294-7.631,1.823Z" transform="translate(-499.005 -19.502)" fill="#45c0be"/>
    <path id="Path_35" data-name="Path 35" d="M841.751,498.962H823.579c0,.779-19.865,1.411-19.865,1.411a7.253,7.253,0,0,0-1.19,1.128,7,7,0,0,0-1.637,4.514v1.129a7.056,7.056,0,0,0,7.053,7.053h33.811a7.059,7.059,0,0,0,7.053-7.053v-1.128a7.063,7.063,0,0,0-7.053-7.053Z" transform="translate(-515.143 -121.567)" fill="#e4e4e4"/>
    <rect id="Rectangle_3" data-name="Rectangle 3" width="7.335" height="42.338" transform="translate(306.058 392.349)" fill="#ccc"/>
    <path id="Path_36" data-name="Path 36" d="M799.312,645.851c0,.792,11.115.307,24.826.307s24.826.486,24.826-.307-11.115-7.077-24.826-7.077S799.312,645.059,799.312,645.851Z" transform="translate(-514.131 -211.422)" fill="#e4e4e4"/>
    <path id="Path_37" data-name="Path 37" d="M660.7,369.588h-5.459l-2.6-21.056H660.7Z" transform="translate(-380.442 60.004)" fill="#ffb6b6"/>
    <path id="Path_38" data-name="Path 38" d="M757.759,647.128h-17.6V646.9a6.852,6.852,0,0,1,6.851-6.851h10.752Z" transform="translate(-476.113 -212.244)" fill="#2f2e41"/>
    <path id="Path_39" data-name="Path 39" d="M615.541,369.588h-5.459l-2.6-21.056h8.057Z" transform="translate(-351.422 60.004)" fill="#ffb6b6"/>
    <path id="Path_40" data-name="Path 40" d="M712.6,647.128H695V646.9a6.852,6.852,0,0,1,6.851-6.851H712.6Z" transform="translate(-447.092 -212.244)" fill="#2f2e41"/>
    <circle id="Ellipse_4" data-name="Ellipse 4" cx="9.492" cy="9.492" r="9.492" transform="translate(303.529 289.386)" fill="#ffb6b6"/>
    <path id="Path_41" data-name="Path 41" d="M817.783,455.808s3.185,16.841-8.933,18.985-29.609,3.652-29.609,3.652l-7.855,36.649-10.553-.942s1.4-44.117,4.855-47.568S790.954,452.8,790.954,452.8Z" transform="translate(-489.401 -91.897)" fill="#2f2e41"/>
    <path id="Path_42" data-name="Path 42" d="M764.224,441.471l-5.3,5.317s-38.266,6.164-39.743,15c-2.229,13.344-4.861,42.36-4.861,42.36l11.505-.863,4.512-32.984,18.408-4.187L769.689,454.7Z" transform="translate(-459.508 -84.618)" fill="#2f2e41"/>
    <path id="Path_43" data-name="Path 43" d="M867.753,251.061c-.937-1.768-2.127-5.291-4.019-5.944a15.034,15.034,0,0,0-3.237-.69l-3.214,1.236,1.75-1.361q-.511-.03-1.021-.05l-2.169.834,1.11-.863a8.859,8.859,0,0,0-5.676,1.42c-1.336,1.049-2.659,5.025-2.873,6.709a12.832,12.832,0,0,0,.236,4.835l.549.522a6.742,6.742,0,0,0,.431-1.372,6.5,6.5,0,0,1,3.109-4.219l.03-.017a5.828,5.828,0,0,1,3.1-.457l5.017.181A4.272,4.272,0,0,1,865.7,254.7a42.278,42.278,0,0,1,1.381,4.5s.517-.672.765-.172a17.3,17.3,0,0,0,.72-4.014A7.865,7.865,0,0,0,867.753,251.061Z" transform="translate(-545.599 42.15)" fill="#2f2e41"/>
    <path id="Path_44" data-name="Path 44" d="M975.209,290.863A4.151,4.151,0,0,0,971.452,296l-7.633,5.63,2.29,5.473,10.667-8.1a4.173,4.173,0,0,0-1.568-8.138Z" transform="translate(-619.857 12.182)" fill="#ffb6b6"/>
    <path id="Path_45" data-name="Path 45" d="M921.215,312.689,902.08,333.94s-9.151-2.929-16.227-6.105l-3.179-9.765a19.422,19.422,0,0,1-.929-7.026c9.811-2.611,21.221,7.1,21.221,7.1l14.323-11.219Z" transform="translate(-567.092 1.851)" fill="#45c0be"/>
    <path id="Path_46" data-name="Path 46" d="M847.669,368.775a51.8,51.8,0,0,0-10.751-2.856l-.164-.02.045-.158c3.941-13.839,2.958-22.692,1.026-35.99a13.432,13.432,0,0,1,7.7-14.114l.023-.011,10.875-.691h.025l7.909,2.326a5.425,5.425,0,0,1,3.883,5.3c-.086,4.373.1,9.256.288,14.425.432,11.6.878,23.589-1.655,31.369l-.013.041-.034.026a12.9,12.9,0,0,1-8.247,2.9C855.03,371.317,851.407,370.066,847.669,368.775Z" transform="translate(-538.194 -3.294)" fill="#45c0be"/>
    <path id="Path_47" data-name="Path 47" d="M459.76,660.6H110.842a.506.506,0,1,1,0-1.011H459.759a.506.506,0,0,1,0,1.011Z" transform="translate(-71.337 -224.798)" fill="#ccc"/>
  </g>
</svg>
