<svg xmlns="http://www.w3.org/2000/svg" width="350" height="287.466" viewBox="0 0 350 287.466">
  <g id="Group_13" data-name="Group 13" transform="translate(0 -0.017)">
    <path id="Path_71" data-name="Path 71" d="M890.231,725.817c.107,11.2-70.466,12.226-71.81,0C818.314,714.62,888.886,713.593,890.231,725.817Z" transform="translate(-540.231 -447.123)" fill="#e3f6f5"/>
    <path id="Path_72" data-name="Path 72" d="M618.109,507.569l-5.245,2.861L616.2,521.4l5.245.477,2.861-6.2Z" transform="translate(-323.325 -267.753)" fill="#ffb8b8"/>
    <path id="Path_73" data-name="Path 73" d="M658.28,553.994v5.245l8.106-.477-.113-4.319Z" transform="translate(-347.285 -292.245)" fill="#ffb8b8"/>
    <path id="Path_74" data-name="Path 74" d="M619.929,374.348l2.861,35.761,9.059,52.448,14.3-1.907-4.768-41.482,1.907-38.144Z" transform="translate(-327.052 -197.471)" fill="#2f2e41"/>
    <path id="Path_75" data-name="Path 75" d="M887.653,463.6l-34.33.477L849.508,490.3l23.363,10.966,5.722,20.979-29.085,30.992,11.443,14.3s16.211-21.933,28.131-34.33,6.2-50.065,6.2-50.065Z" transform="translate(-556.632 -313.421)" fill="#2f2e41"/>
    <circle id="Ellipse_12" data-name="Ellipse 12" cx="10.49" cy="10.49" r="10.49" transform="translate(300.029 61.491)" fill="#ffb8b8"/>
    <path id="Path_76" data-name="Path 76" d="M878.777,307.9v10.49l7.152,11.443s10.966-8.106,8.582-10.013-2.861-16.688-2.861-16.688Z" transform="translate(-572.073 -228.763)" fill="#ffb8b8"/>
    <path id="Path_77" data-name="Path 77" d="M641.21,183.313l-7.152,8.582,2.861,59.6,22.41-.477,3.815-51.971L658.375,185.7l-3.271-4.45-5.789,8.741Z" transform="translate(-334.506 -95.598)" fill="#d0cde1"/>
    <path id="Path_78" data-name="Path 78" d="M836.452,373.028l-5.245,20.026,5.245,20.026-8.582,11.443-7.629-36.237s5.722-29.562,6.2-32.9,1.43-3.814,1.43-3.814l3.814.477Z" transform="translate(-541.191 -254.321)" fill="#2f2e41"/>
    <path id="Path_79" data-name="Path 79" d="M705.714,234.889l3.338,6.2.954,10.489L708.1,263.5l6.675,10.967,6.675-30.039L714.3,205.8h-2.861Z" transform="translate(-372.309 -108.553)" fill="#2f2e41"/>
    <path id="Path_80" data-name="Path 80" d="M838.517,652.327s-6.675,1.907-9.059,2.384,1.431,9.536,1.431,9.536,2.384,12.4,2.861,14.781,3.814,10.49,8.106,11.443,1.43-16.688,1.43-16.688,1.907-5.722,1.907-7.629-2.861-.954-2.861-.954C834.7,664.247,838.517,652.327,838.517,652.327Z" transform="translate(-545.64 -412.988)" fill="#2f2e41"/>
    <path id="Path_81" data-name="Path 81" d="M882.744,717.206c.477,2.861-.477,2.861,7.152,3.814s5.722-5.245,5.722-5.245a40.066,40.066,0,0,0-1.907-8.582c-1.43-3.814-9.059.954-9.059.954S882.267,714.345,882.744,717.206Z" transform="translate(-574.132 -441.153)" fill="#2f2e41"/>
    <path id="Path_82" data-name="Path 82" d="M882.079,282.645l.249,4.24a48,48,0,0,0,3.554-14.109c.477-7.152-7.629-8.582-12.4-9.059s-12.874,2.861-12.874,6.675,8.582,2.861,11.92,1.907,4.768,7.152,4.768,7.152l1.907.477Z" transform="translate(-562.489 -207.948)" fill="#2f2e41"/>
    <path id="Path_83" data-name="Path 83" d="M643.24,189l2.814-3.376,8.106,6.675-8.106,5.722Z" transform="translate(-339.35 -97.905)" fill="#d0cde1"/>
    <path id="Path_84" data-name="Path 84" d="M675.414,185.874l-3.338-4.291-5.722,8.582,7.152,5.245Z" transform="translate(-351.544 -95.775)" fill="#d0cde1"/>
    <path id="Path_85" data-name="Path 85" d="M844.073,368.256l1.907,18.119-3.814,10.966-2.384,10.49s0,10.013,9.536,10.49,17.642-30.039,17.642-30.039,1.43,6.675,2.384,10.49,17.165,19.072,17.165,19.072,3.814-.477,7.152-8.106-6.675-14.781-6.675-14.781l-2.861-10.013.954-12.4,6.675-32.423-19.788-10.251,2.146,27.416-7.152,21.456L856.232,331.3l-3.576,2.622-15.258,6.2Z" transform="translate(-550.243 -242.873)" fill="#2f2e41"/>
    <path id="Path_86" data-name="Path 86" d="M353.438,365.448c-.943-.007-1.9-.014-2.833-.043l.029-.944c.927.029,1.875.042,2.8.042s1.885-.015,2.829-.046l.03.944C355.343,365.432,354.381,365.448,353.438,365.448Zm-8.513-.4c-1.881-.178-3.781-.419-5.646-.717l.149-.933c1.845.294,3.725.533,5.586.71Zm17.051-.01-.09-.94c1.86-.178,3.74-.419,5.585-.717l.15.933c-1.865.3-3.765.544-5.645.724Zm-28.286-1.785c-1.842-.418-3.695-.9-5.508-1.437l.268-.906c1.793.53,3.627,1.008,5.449,1.421Zm39.519-.024-.21-.921c1.826-.417,3.659-.9,5.447-1.428l.269.906c-1.807.537-3.66,1.022-5.506,1.443Zm-50.43-3.2c-1.777-.653-3.555-1.372-5.285-2.137l.382-.864c1.711.757,3.47,1.468,5.228,2.114Zm61.338-.037-.327-.887c1.747-.644,3.5-1.355,5.21-2.113l.383.864c-1.728.767-3.5,1.486-5.267,2.136Zm-71.757-4.573c-1.672-.873-3.343-1.814-4.964-2.8l.49-.808c1.6.973,3.256,1.9,4.911,2.767Zm82.144-.035-.437-.837c1.651-.863,3.3-1.794,4.9-2.766l.491.807c-1.617.983-3.283,1.923-4.952,2.8Zm-91.88-5.871c-1.549-1.081-3.084-2.227-4.563-3.407l.589-.739c1.463,1.167,2.983,2.3,4.515,3.371Zm101.6-.034-.542-.774c1.532-1.071,3.049-2.2,4.509-3.371l.59.738c-1.475,1.178-3.009,2.324-4.557,3.406Zm-110.5-7.065c-1.4-1.271-2.777-2.6-4.091-3.958l.678-.658c1.3,1.341,2.663,2.658,4.048,3.917Zm119.386-.033-.636-.7c1.382-1.255,2.743-2.574,4.046-3.918l.678.657c-1.316,1.359-2.692,2.691-4.088,3.961ZM285.8,334.248c-1.226-1.438-2.421-2.933-3.553-4.444l.756-.567c1.12,1.5,2.3,2.975,3.516,4.4Zm135.225-.039-.719-.613c1.213-1.423,2.4-2.9,3.516-4.4l.757.566c-1.132,1.514-2.327,3.011-3.554,4.449Zm-142.04-9.067c-1.034-1.583-2.028-3.218-2.957-4.859l.823-.465c.918,1.624,1.9,3.241,2.925,4.807Zm148.857-.051-.792-.516c1.023-1.569,2.007-3.189,2.926-4.817l.823.464c-.929,1.645-1.924,3.283-2.958,4.868Zm-154.452-9.845c-.822-1.7-1.6-3.448-2.308-5.195l.875-.355c.7,1.727,1.471,3.457,2.284,5.139Zm160.048-.074-.851-.411c.813-1.685,1.582-3.419,2.285-5.154l.876.354c-.711,1.755-1.487,3.508-2.309,5.211ZM269.111,304.712c-.6-1.795-1.144-3.63-1.623-5.457l.914-.24c.474,1.806,1.014,3.623,1.606,5.4Zm168.607-.1-.9-.3c.588-1.773,1.126-3.59,1.6-5.4l.914.239c-.479,1.83-1.023,3.666-1.617,5.458Zm-171.5-10.9c-.361-1.854-.666-3.744-.908-5.618l.937-.121c.239,1.855.541,3.725.9,5.559Zm174.376-.1-.927-.179c.354-1.833.655-3.7.891-5.56l.938.12c-.24,1.876-.543,3.766-.9,5.619Zm-175.83-11.179c-.121-1.883-.184-3.8-.186-5.69h.945c0,1.872.064,3.766.184,5.63Zm177.271-.106-.943-.06c.118-1.862.177-3.755.177-5.628v-.207h.945v.2c0,1.9-.06,3.809-.179,5.691ZM265.7,271.1l-.943-.058c.117-1.887.3-3.793.533-5.666l.938.118C265.989,267.352,265.812,269.238,265.7,271.1Zm175.385-.31c-.123-1.868-.307-3.753-.547-5.6l.937-.122c.243,1.871.43,3.776.554,5.664ZM267.108,259.938l-.928-.179c.356-1.854.779-3.722,1.254-5.552l.914.238C267.878,256.255,267.461,258.1,267.108,259.938Zm172.52-.3c-.36-1.836-.784-3.682-1.26-5.488l.913-.241c.482,1.825.91,3.692,1.274,5.547ZM269.942,249.044l-.9-.3c.593-1.8,1.253-3.6,1.963-5.353l.876.354C271.182,245.486,270.528,247.268,269.942,249.044Zm166.815-.295c-.593-1.773-1.252-3.55-1.957-5.28l.875-.357c.713,1.749,1.379,3.545,1.978,5.337ZM274.162,238.591l-.852-.41c.82-1.7,1.706-3.4,2.634-5.053l.824.464C275.85,235.223,274.973,236.9,274.162,238.591Zm158.347-.258c-.814-1.678-1.694-3.353-2.616-4.98l.822-.466c.932,1.644,1.822,3.338,2.644,5.034Zm-152.821-9.562-.792-.515c1.031-1.584,2.126-3.156,3.257-4.672l.758.565C281.792,225.649,280.708,227.2,279.688,228.771Zm147.274-.222c-1.022-1.561-2.11-3.112-3.233-4.608l.756-.567c1.135,1.512,2.234,3.079,3.268,4.657Zm-140.54-8.806-.72-.612c1.224-1.44,2.51-2.859,3.824-4.218l.68.657C288.906,216.914,287.633,218.318,286.422,219.742Zm133.787-.195c-1.215-1.42-2.492-2.82-3.795-4.161l.677-.658c1.317,1.355,2.608,2.77,3.835,4.205Zm-125.962-7.9-.636-.7c1.4-1.274,2.854-2.517,4.327-3.7l.591.738c-1.457,1.166-2.9,2.4-4.282,3.656Zm118.114-.171c-1.385-1.254-2.83-2.481-4.294-3.646l.589-.74c1.48,1.178,2.94,2.417,4.34,3.685Zm-109.328-6.862-.542-.774c1.546-1.083,3.148-2.131,4.761-3.114l.492.807C306.148,202.5,304.563,203.541,303.033,204.613Zm100.515-.15c-1.538-1.071-3.128-2.1-4.726-3.07l.489-.808c1.615.977,3.222,2.021,4.776,3.1Zm-90.908-5.7-.439-.837c1.67-.876,3.392-1.71,5.117-2.478l.384.863C316,197.069,314.292,197.893,312.64,198.76Zm81.269-.13c-1.659-.864-3.369-1.685-5.082-2.44l.382-.865c1.731.764,3.46,1.594,5.137,2.467Zm-71-4.441-.328-.886c1.772-.655,3.588-1.262,5.4-1.8l.27.906c-1.792.534-3.589,1.134-5.341,1.782Zm60.685-.107c-1.756-.642-3.555-1.236-5.348-1.763l.267-.907c1.812.533,3.631,1.133,5.406,1.783Zm-49.9-3.108-.211-.921c1.838-.421,3.718-.788,5.586-1.092l.151.933C337.374,190.194,335.515,190.557,333.7,190.974Zm39.1-.069c-1.822-.411-3.683-.767-5.53-1.06l.148-.933c1.868.3,3.748.657,5.59,1.072Zm-27.989-1.734-.091-.94c1.876-.182,3.787-.306,5.679-.369l.031.944c-1.873.062-3.763.185-5.619.365Zm16.872-.029c-1.859-.174-3.75-.29-5.62-.346l.028-.944c1.89.056,3.8.174,5.68.349Z" transform="translate(-248.045 -167.948)" fill="#d0cde1"/>
    <ellipse id="Ellipse_13" data-name="Ellipse 13" cx="22" cy="22.5" rx="22" ry="22.5" transform="translate(81 0.017)" fill="#45c0be"/>
    <ellipse id="Ellipse_14" data-name="Ellipse 14" cx="22" cy="22.5" rx="22" ry="22.5" transform="translate(167 61.017)" fill="#45c0be"/>
    <circle id="Ellipse_15" data-name="Ellipse 15" cx="22.5" cy="22.5" r="22.5" transform="translate(138 153.017)" fill="#45c0be"/>
    <ellipse id="Ellipse_16" data-name="Ellipse 16" cx="23.5" cy="22" rx="23.5" ry="22" transform="translate(31 157.017)" fill="#45c0be"/>
    <ellipse id="Ellipse_17" data-name="Ellipse 17" cx="22" cy="22.5" rx="22" ry="22.5" transform="translate(0 61.017)" fill="#45c0be"/>
    <path id="Path_87" data-name="Path 87" d="M444.223,177.159h-7.745a2.655,2.655,0,0,1-2.655-2.655v-7.745a.221.221,0,0,0-.221-.221h-5.089a3.541,3.541,0,0,0-3.541,3.541v17.7a3.541,3.541,0,0,0,3.541,3.541H440.9a3.541,3.541,0,0,0,3.541-3.541v-10.4A.221.221,0,0,0,444.223,177.159Zm-5.09,8.852h-8.852a.885.885,0,0,1,0-1.77h8.852a.885.885,0,1,1,0,1.77Zm0-4.426h-8.852a.885.885,0,0,1,0-1.77h8.852a.885.885,0,1,1,0,1.77Z" transform="translate(-332.661 -156.703)" fill="#fff"/>
    <path id="Path_88" data-name="Path 88" d="M455.6,175.954,447.642,168a.111.111,0,0,0-.189.078v7.181a.885.885,0,0,0,.885.885h7.181a.111.111,0,0,0,.078-.189Z" transform="translate(-344.522 -157.457)" fill="#fff"/>
    <path id="Path_89" data-name="Path 89" d="M576.065,507.508a1.177,1.177,0,1,0,.832.344A1.177,1.177,0,0,0,576.065,507.508Z" transform="translate(-411.752 -336.587)" fill="#fff"/>
    <path id="Path_90" data-name="Path 90" d="M569.315,496.659v0a.9.9,0,0,0-.667-.675,10.343,10.343,0,0,0-5.671.938,18.239,18.239,0,0,0-5.934,3.757,14.133,14.133,0,0,0-1.3,1.491,5.779,5.779,0,0,0-2.582.415c-2.546,1.12-3.273,3.987-3.466,5.165a1.1,1.1,0,0,0,1.2,1.279h.006l2.836-.31c0,.036.007.069.011.1a1.515,1.515,0,0,0,.436.914l1.384,1.385a1.511,1.511,0,0,0,.913.437l.095.01-.309,2.832v.006a1.1,1.1,0,0,0,.983,1.21q.051.005.1.006a1.123,1.123,0,0,0,.183-.015c1.184-.19,4.05-.909,5.167-3.468a5.829,5.829,0,0,0,.417-2.572,13.878,13.878,0,0,0,1.5-1.3,18.106,18.106,0,0,0,3.761-5.887A10.523,10.523,0,0,0,569.315,496.659Zm-4.72,7.71a2.591,2.591,0,1,1,0-3.664l0,0a2.57,2.57,0,0,1,.027,3.635Z" transform="translate(-398.451 -330.443)" fill="#fff"/>
    <path id="Path_91" data-name="Path 91" d="M556.19,526.456a.705.705,0,0,0-.485.118c-.282.193-.565.383-.85.569a.658.658,0,0,1-.926-.882l.536-.926a.705.705,0,0,0-.668-1.1,2.7,2.7,0,0,0-1.571.77c-.161.162-.652.653-.916,2.525a15.794,15.794,0,0,0-.142,1.621.705.705,0,0,0,.687.723h.036a15.838,15.838,0,0,0,1.622-.141c1.872-.265,2.364-.756,2.525-.917a2.667,2.667,0,0,0,.767-1.576.705.705,0,0,0-.614-.786Z" transform="translate(-399.238 -345.409)" fill="#fff"/>
    <path id="Path_92" data-name="Path 92" d="M325.261,539.528h-1.609a1.207,1.207,0,0,1-1.207-1.207v-7.24a1.207,1.207,0,0,1,1.207-1.207h1.609a1.207,1.207,0,0,1,1.207,1.207v7.24A1.207,1.207,0,0,1,325.261,539.528Z" transform="translate(-278.572 -348.387)" fill="#fff"/>
    <path id="Path_93" data-name="Path 93" d="M349.1,534.138h-1.609a1.207,1.207,0,0,1-1.207-1.207V520.866a1.207,1.207,0,0,1,1.207-1.207H349.1a1.207,1.207,0,0,1,1.207,1.207v12.066A1.207,1.207,0,0,1,349.1,534.138Z" transform="translate(-291.148 -342.997)" fill="#fff"/>
    <path id="Path_94" data-name="Path 94" d="M361.016,527.851h-1.609a1.207,1.207,0,0,1-1.207-1.207v-17.7a1.207,1.207,0,0,1,1.207-1.207h1.609a1.207,1.207,0,0,1,1.207,1.207v17.7A1.207,1.207,0,0,1,361.016,527.851Z" transform="translate(-297.436 -336.71)" fill="#fff"/>
    <path id="Path_95" data-name="Path 95" d="M337.179,523.359h-1.609a1.207,1.207,0,0,1-1.207-1.207V500.434a1.207,1.207,0,0,1,1.207-1.207h1.609a1.207,1.207,0,0,1,1.207,1.207v21.719a1.207,1.207,0,0,1-1.207,1.207Z" transform="translate(-284.86 -332.218)" fill="#fff"/>
    <path id="Path_96" data-name="Path 96" d="M616.845,317.791l-1.149-1.15a1.409,1.409,0,0,0-1.987-.005l-7.991,7.375a1.492,1.492,0,0,0-.5,1.015,1.414,1.414,0,0,0,.405,1.054l1.717,1.736,0,0a1.422,1.422,0,0,0,1,.415h.052a1.478,1.478,0,0,0,1.02-.492l7.427-7.955a1.409,1.409,0,0,0,.009-1.992Z" transform="translate(-427.752 -235.675)" fill="#fff"/>
    <path id="Path_97" data-name="Path 97" d="M633.928,306.85l-.014-.014-1.509-1.493a.945.945,0,0,0-.673-.276.964.964,0,0,0-.563.182c0-.019,0-.037,0-.054a1.61,1.61,0,0,0-.229-1.11,11.369,11.369,0,0,0-1.092-1.265l0,0a11.915,11.915,0,0,0-3.817-2.463,6.144,6.144,0,0,0-2.337-.46,4.453,4.453,0,0,0-2.85,1,5.28,5.28,0,0,0-.624.714.7.7,0,0,0,.821,1.071,3.281,3.281,0,0,1,.378-.116,2.8,2.8,0,0,1,.812-.051,3.415,3.415,0,0,1,1.571.576,2.263,2.263,0,0,1,.8,1.809,4.7,4.7,0,0,1-.88,1.518.7.7,0,0,0,.064.924l1.515,1.515a.7.7,0,0,0,.969.027c.428-.383,1.081-.959,1.309-1.1a1.641,1.641,0,0,1,.647-.255.844.844,0,0,1,.5.1.055.055,0,0,1-.014.042l-.08.076-.013.012a.947.947,0,0,0,0,1.34l0,0,1.508,1.493a.944.944,0,0,0,.673.275.955.955,0,0,0,.67-.273l2.443-2.413.025-.026A.963.963,0,0,0,633.928,306.85Z" transform="translate(-435.597 -227.057)" fill="#fff"/>
    <path id="Path_98" data-name="Path 98" d="M283.058,310.1a.881.881,0,0,1-.623-1.5l2.021-2.021-2.021-2.021a.881.881,0,0,1,1.246-1.246l2.644,2.644a.881.881,0,0,1,0,1.246l-2.644,2.644A.879.879,0,0,1,283.058,310.1Z" transform="translate(-257.328 -228.719)" fill="#fff"/>
    <path id="Path_99" data-name="Path 99" d="M253.209,315.691a.881.881,0,0,1-.881-.881v-.881a5.315,5.315,0,0,1,5.286-5.288h11.46a.881.881,0,1,1,0,1.763H257.616a3.547,3.547,0,0,0-3.525,3.528v.879a.881.881,0,0,1-.881.881Z" transform="translate(-241.581 -231.671)" fill="#fff"/>
    <path id="Path_100" data-name="Path 100" d="M265.181,330.616a.879.879,0,0,1-.623-.258l-2.644-2.644a.881.881,0,0,1,0-1.246l2.644-2.644a.881.881,0,0,1,1.246,1.246l-2.021,2.021,2.021,2.021a.881.881,0,0,1-.623,1.5Z" transform="translate(-246.502 -239.545)" fill="#fff"/>
    <path id="Path_101" data-name="Path 101" d="M264.4,325.019a.881.881,0,0,1,0-1.763H275.86a3.547,3.547,0,0,0,3.526-3.528v-.879a.881.881,0,1,1,1.763,0v.881a5.315,5.315,0,0,1-5.286,5.288Z" transform="translate(-247.486 -236.592)" fill="#fff"/>
  </g>
</svg>
