<svg xmlns="http://www.w3.org/2000/svg" width="322.196" height="289.247" viewBox="0 0 322.196 289.247">
  <g id="Group_9" data-name="Group 9" transform="translate(-75 -167.367)">
    <circle id="Ellipse_11" data-name="Ellipse 11" cx="138" cy="138" r="138" transform="translate(80.196 167.367)" fill="#45c0be" opacity="0.15"/>
    <g id="Group_7" data-name="Group 7" transform="translate(75 225.488)">
      <path id="Path_48" data-name="Path 48" d="M793.663,708.391H659.618a.445.445,0,0,1,0-.891H793.663a.445.445,0,1,1,0,.891Z" transform="translate(-471.912 -477.264)" fill="#3f3d56"/>
      <path id="Path_49" data-name="Path 49" d="M525.383,481.319h-5.459l-2.6-21.059h8.058Z" transform="translate(-287.322 -255.292)" fill="#ffb8b8"/>
      <path id="Path_50" data-name="Path 50" d="M506.144,504.045h10.529v6.63H499.515A6.63,6.63,0,0,1,506.144,504.045Z" transform="translate(-277.443 -279.579)" fill="#2f2e41"/>
      <path id="Path_51" data-name="Path 51" d="M604.348,469.8l-4.966,2.268L588.269,454l7.329-3.348Z" transform="translate(-326.672 -249.961)" fill="#ffb8b8"/>
      <path id="Path_52" data-name="Path 52" d="M6.63,0H17.159V6.63H0A6.63,6.63,0,0,1,6.63,0Z" transform="translate(262.482 225.067) rotate(-24.548)" fill="#2f2e41"/>
      <path id="Path_53" data-name="Path 53" d="M817.489,511.926a4.478,4.478,0,0,0,.357-6.857l6.418-14.562-8.153,1.382L811.266,505.5a4.5,4.5,0,0,0,6.223,6.421Z" transform="translate(-555.713 -356.905)" fill="#ffb8b8"/>
      <path id="Path_54" data-name="Path 54" d="M756.6,585.983h-5.216a2.011,2.011,0,0,1-2-1.859L743.87,508.17a2,2,0,0,1,2.193-2.14l32.836,3.2a2,2,0,0,1,1.809,1.957l.632,33.5a1.557,1.557,0,0,0,.1.531l12.374,32.087a2,2,0,0,1-1.177,2.6l-5.285,1.948a2,2,0,0,1-2.475-.964l-15.2-29.556a1.992,1.992,0,0,1-.18-.509l-2.6-12.511a1.559,1.559,0,0,0-3.074.139l-5.238,45.746A2,2,0,0,1,756.6,585.983Z" transform="translate(-518.888 -365.51)" fill="#2f2e41"/>
      <circle id="Ellipse_9" data-name="Ellipse 9" cx="10.938" cy="10.938" r="10.938" transform="translate(229.372 61.395)" fill="#ffb8b8"/>
      <path id="Path_55" data-name="Path 55" d="M748.551,441.814c1.4.966,17.175,11.361,35.155,3.093-.233-2.008-2.477-22.168-.517-37.03a18.8,18.8,0,0,0-7.7-17.923,22.148,22.148,0,0,0-22.276-2.405h0q-.443.2-.892.413Z" transform="translate(-521.487 -298.715)" fill="#45c0be"/>
      <path id="Path_56" data-name="Path 56" d="M818.5,460.452a2,2,0,0,1-1.475-.65l-2.393-2.61a2.014,2.014,0,0,1-.445-1.922l5.48-18.547-8.337-17.509a3.7,3.7,0,0,1,6.6-3.345L829.2,434.158a5.1,5.1,0,0,1,.307,4.779l-9.178,20.336a2,2,0,0,1-1.51,1.154,2.037,2.037,0,0,1-.319.026Z" transform="translate(-556.109 -314.426)" fill="#45c0be"/>
      <path id="Path_57" data-name="Path 57" d="M761.284,468.371h-4.37l7.628-35.9.44.057-1.7,33.934a2,2,0,0,1-2,1.9Z" transform="translate(-526.126 -324.717)" opacity="0.2"/>
      <path id="Path_58" data-name="Path 58" d="M747.787,505.27a4.478,4.478,0,0,0-1.075-6.782l3.255-15.577-7.689,3.044-1.912,14.326a4.5,4.5,0,0,0,7.421,4.989Z" transform="translate(-516.672 -352.691)" fill="#ffb8b8"/>
      <path id="Path_59" data-name="Path 59" d="M748.352,444.622a2.081,2.081,0,0,1-.226-.013l-4.66-.518a2.011,2.011,0,0,1-1.781-2.074l1.928-46.663a6.024,6.024,0,0,1,11.906-1.031l1.242,5.714-.006.04-6.425,42.837A2,2,0,0,1,748.352,444.622Z" transform="translate(-517.678 -300.923)" fill="#45c0be"/>
      <path id="Path_60" data-name="Path 60" d="M769.657,343.5c-1.134.194-2.067-1.384-2.209-2.495a19.542,19.542,0,0,1,.308-3.277,2.687,2.687,0,0,0-1.622-2.771c-1.2-.343-2.315.621-3.545.5-1.714-.161-2.574-2.167-2.781-3.789s-.371-3.543-1.855-4.469-3.31-.251-5.01-.223a6.842,6.842,0,0,1-6.469-4.846,1.63,1.63,0,0,0,1.859-.745,1.65,1.65,0,0,0-.5-1.95l3.257,1.595a1.75,1.75,0,0,1,1.152-2.281,6.151,6.151,0,0,1,3.023-.03c5.1.792,11.005.4,14.388,4.29,2.343,2.693,4.271,7.818,4.008,11.133S769.657,343.5,769.657,343.5Z" transform="translate(-520.336 -261.526)" fill="#2f2e41"/>
      <path id="Path_61" data-name="Path 61" d="M363.41,395.8H246.288a3.121,3.121,0,0,1-3.117-3.117l-5.344-199.05a3.123,3.123,0,0,1,3.117-3.129H358.066a3.121,3.121,0,0,1,3.117,3.117l.968,36.06-.89.024-.969-36.072a2.232,2.232,0,0,0-2.227-2.239H240.944a2.229,2.229,0,0,0-2.227,2.227l5.344,199.05a2.232,2.232,0,0,0,2.227,2.239H363.41a2.229,2.229,0,0,0,2.227-2.227l-1.04-38.732.89-.024,1.04,38.744a3.123,3.123,0,0,1-3.117,3.129Z" transform="translate(-237.827 -190.5)" fill="#2f2e41"/>
      <rect id="Rectangle_5" data-name="Rectangle 5" width="0.891" height="17.1" transform="matrix(1, -0.027, 0.027, 1, 124.493, 92.64)" fill="#2f2e41"/>
      <path id="Path_62" data-name="Path 62" d="M366.561,400.1H269.542a2.662,2.662,0,0,1-2.659-2.659l-4.426-164.884a2.664,2.664,0,0,1,2.658-2.671h97.019a2.662,2.662,0,0,1,2.659,2.659l.8,18.97-.89.037-.8-18.988a1.775,1.775,0,0,0-1.768-1.787H265.116a1.77,1.77,0,0,0-1.768,1.768l4.427,164.884a1.773,1.773,0,0,0,1.768,1.78h97.019a1.77,1.77,0,0,0,1.768-1.768l-.573-21.649.89-.023.573,21.661a2.664,2.664,0,0,1-2.659,2.67Z" transform="translate(-251.865 -212.349)" fill="#2f2e41"/>
      <rect id="Rectangle_6" data-name="Rectangle 6" width="0.891" height="16.928" transform="translate(114.028 93.086) rotate(-1.516)" fill="#2f2e41"/>
      <path id="Path_63" data-name="Path 63" d="M406.655,331.83H293.1a3.121,3.121,0,0,1-3.117-3.092L288.2,280.617a3.121,3.121,0,0,1,3.117-3.117H404.873a3.121,3.121,0,0,1,3.117,3.092l1.781,48.121a3.121,3.121,0,0,1-3.117,3.117ZM289.088,280.594l1.781,48.119a2.229,2.229,0,0,0,2.227,2.227H406.655a2.229,2.229,0,0,0,2.227-2.2L407.1,280.617a2.229,2.229,0,0,0-2.227-2.227H291.314A2.229,2.229,0,0,0,289.088,280.594Z" transform="translate(-266.143 -238.756)" fill="#ccc"/>
      <path id="Path_64" data-name="Path 64" d="M454.655,490.83H341.1a3.121,3.121,0,0,1-3.117-3.092L336.2,439.617a3.121,3.121,0,0,1,3.117-3.117H452.873a3.121,3.121,0,0,1,3.117,3.092l1.781,48.121a3.121,3.121,0,0,1-3.117,3.117ZM337.088,439.594l1.781,48.119a2.229,2.229,0,0,0,2.227,2.227H454.655a2.229,2.229,0,0,0,2.227-2.2L455.1,439.617a2.229,2.229,0,0,0-2.227-2.227H339.314a2.229,2.229,0,0,0-2.227,2.2Z" transform="translate(-292.767 -326.949)" fill="#ccc"/>
      <path id="Path_65" data-name="Path 65" d="M404.092,460a2.895,2.895,0,1,0,0,5.789h57.893a2.895,2.895,0,0,0,0-5.789Z" transform="translate(-328.82 -339.984)" fill="#45c0be"/>
      <path id="Path_66" data-name="Path 66" d="M404.092,491a2.895,2.895,0,0,0,0,5.789h57.893a2.895,2.895,0,0,0,0-5.789Z" transform="translate(-328.82 -357.178)" fill="#45c0be"/>
      <path id="Path_67" data-name="Path 67" d="M404.092,522a2.895,2.895,0,1,0,0,5.789h57.893a2.895,2.895,0,1,0,0-5.789Z" transform="translate(-328.82 -374.373)" fill="#45c0be"/>
      <path id="Path_68" data-name="Path 68" d="M356.092,301a2.895,2.895,0,0,0,0,5.789h57.893a2.895,2.895,0,1,0,0-5.789Z" transform="translate(-302.196 -251.791)" fill="#45c0be"/>
      <path id="Path_69" data-name="Path 69" d="M356.092,332a2.895,2.895,0,0,0,0,5.789h57.893a2.895,2.895,0,1,0,0-5.789Z" transform="translate(-302.196 -268.986)" fill="#45c0be"/>
      <path id="Path_70" data-name="Path 70" d="M356.092,363a2.895,2.895,0,0,0,0,5.789h57.893a2.895,2.895,0,1,0,0-5.789Z" transform="translate(-302.196 -286.181)" fill="#45c0be"/>
      <circle id="Ellipse_10" data-name="Ellipse 10" cx="4.453" cy="4.453" r="4.453" transform="translate(59.867 191.912)" fill="#2f2e41"/>
    </g>
  </g>
</svg>
