<svg xmlns="http://www.w3.org/2000/svg" width="269.944" height="199.117" viewBox="0 0 269.944 199.117">
  <g id="Group_234" data-name="Group 234" transform="translate(0.009 -0.004)">
    <path id="Path_248" data-name="Path 248" d="M61.83,433.31c4.263,16.474,13.278,30.714,27.526,37.617,29.619,14.346,96.419,6.947,146.274-1.546,25.789-4.393,48.456-16.515,64.922-33.575Z" transform="translate(-58.931 -337.842)" fill="#45c0be" opacity="0.1"/>
    <path id="Path_249" data-name="Path 249" d="M344.448,62.215H317.094a2.149,2.149,0,1,1,0-4.277h4.731a2.149,2.149,0,1,1,0-4.277h-3.377a2.15,2.15,0,1,1,0-4.277h14.277A40.913,40.913,0,0,0,321.587,46.6c-38.932-4.523-52.832-1.531-57.735,1.544a57.55,57.55,0,0,1-20.01,7.936c-24.02,4.483-68.94,9.877-109.653-1.718-20.235-5.774-35.276,3.971-44.289,20.26H349.2a35.2,35.2,0,0,0-3.212-12.932,2.5,2.5,0,0,1-1.539.52Z" transform="translate(-80.113 -44.29)" fill="#45c0be" opacity="0.1"/>
    <path id="Path_250" data-name="Path 250" d="M50.57,293.19a98.781,98.781,0,0,0,1.06,28.741L291.8,329.879a101.892,101.892,0,0,0,16.687-23.023Zm94.989,20.5h-4.729a2.15,2.15,0,1,1,0,4.277H113.475a2.149,2.149,0,1,1,0-4.277h4.731a2.149,2.149,0,1,1,0-4.277h-3.379a2.15,2.15,0,1,1,0-4.277h27.354a2.149,2.149,0,1,1,0,4.277h3.377a2.149,2.149,0,1,1,0,4.277Z" transform="translate(-49.99 -232.107)" fill="#45c0be" opacity="0.1"/>
    <path id="Path_251" data-name="Path 251" d="M321,168.5,58.8,174.267a86.993,86.993,0,0,0-6.28,24.5H316.408a93.081,93.081,0,0,0,3.809-15.615A66.844,66.844,0,0,0,321,168.5ZM105.757,187.408h-4.729a2.151,2.151,0,1,1,0,4.28H73.673a2.15,2.15,0,1,1,0-4.28H78.4a2.149,2.149,0,1,1,0-4.277H75.025a2.15,2.15,0,1,1,0-4.277H102.38a2.149,2.149,0,1,1,0,4.277h3.377a2.149,2.149,0,1,1,0,4.277Z" transform="translate(-51.906 -138.016)" fill="#45c0be" opacity="0.1"/>
    <ellipse id="Ellipse_53" data-name="Ellipse 53" cx="109.688" cy="10.091" rx="109.688" ry="10.091" transform="translate(24.067 171.497)" fill="#45c0be" opacity="0.1"/>
    <path id="Path_276" data-name="Path 276" d="M889.5,800.264c-.714.027-4.773,0-4.773,0a2.221,2.221,0,0,1-.167-.2C885.6,799.715,887.841,799.184,889.5,800.264Z" transform="translate(-679.765 -614.262)" opacity="0.1"/>
    <path id="Path_277" data-name="Path 277" d="M936.81,800.264c-.714.027-4.773,0-4.773,0a2.22,2.22,0,0,1-.167-.2C932.9,799.715,935.146,799.184,936.81,800.264Z" transform="translate(-715.466 -614.262)" opacity="0.1"/>
    <ellipse id="Ellipse_56" data-name="Ellipse 56" cx="2.209" cy="1.497" rx="2.209" ry="1.497" transform="translate(197.133 102.491)" fill="#575a89"/>
    <circle id="Ellipse_57" data-name="Ellipse 57" cx="75.705" cy="75.705" r="75.705" transform="translate(51.647 35.902)" fill="#45c0be"/>
    <path id="Path_297" data-name="Path 297" d="M486.555,554.08c0,11.951-18.788,1.021-38.93,1.021s-40.515,10.478-40.515-1.472c0-6.815,6.493-16.292,15.808-23.175h0c7.018-5.188,15.637-8.9,24.294-8.9,8.9,0,17.624,4.022,24.581,9.544C480.575,538.055,486.555,547.41,486.555,554.08Z" transform="translate(-319.48 -404.428)" fill="#444053"/>
    <path id="Path_298" data-name="Path 298" d="M520.4,531.074c-10.707-1.612-30.071-3.578-48.873-.641,7.018-5.188,15.637-8.9,24.294-8.9C504.725,521.53,513.446,525.552,520.4,531.074Z" transform="translate(-368.092 -404.413)" fill="#f6f8fb"/>
    <path id="Path_299" data-name="Path 299" d="M337.555,281.31s-22.8,14.579-22.618,37.384S337.555,281.31,337.555,281.31Z" transform="translate(-249.925 -223.143)" opacity="0.05"/>
    <path id="Path_300" data-name="Path 300" d="M820.7,113.438s-20.662-1.244-18.226,13.234a3.519,3.519,0,0,0,1.836,3.72s.037-1.072,2.118-.709a9.57,9.57,0,0,0,2.245.108,4.663,4.663,0,0,0,2.744-1.134h0s5.809-2.4,8.069-11.892c0,0,1.671-2.071,1.6-2.6l-3.487,1.487a6.231,6.231,0,0,1,.245,4.606s-.113-4.513-.783-4.417c-.135.022-1.811.871-1.811.871s2.049,4.383.491,7.566c0,0,.586-5.4-1.144-7.249l-2.454,1.433s2.4,4.525.771,8.218c0,0,.417-5.664-1.286-7.87l-2.226,1.735s2.25,4.461.879,7.524c0,0-.179-6.594-1.359-7.092a13.618,13.618,0,0,0-2.243,2.422s1.541,3.237.587,4.945c0,0-.587-4.393-1.068-4.417,0,0-1.939,2.91-2.142,4.908a10.61,10.61,0,0,1,1.671-5.185,5.821,5.821,0,0,0-2.967,1.539s.3-2.059,3.436-2.238a13.415,13.415,0,0,1,2.032-2.341,12.732,12.732,0,0,0-5.026.579s1.669-1.941,5.6-1.06l2.209-1.791s-4.118-.564-5.865.059c0,0,2.01-1.718,6.456-.466L814,116.5a21.938,21.938,0,0,0-5.6-.491s2.208-1.19,6.3.1l1.718-.768s-2.574-.506-3.328-.584-.793-.29-.793-.29a8.92,8.92,0,0,1,4.842.562S820.763,113.666,820.7,113.438Z" transform="translate(-617.673 -96.446)" fill="#45c0be"/>
    <path id="Path_301" data-name="Path 301" d="M765.4,87.252s-9.325-.564-8.236,5.978A1.6,1.6,0,0,0,758,94.911s.015-.491.957-.319a4.433,4.433,0,0,0,1.013.049,2.132,2.132,0,0,0,1.242-.513h0s2.623-1.085,3.644-5.374c0,0,.756-.935.736-1.175l-1.575.672a2.818,2.818,0,0,1,.115,2.081s-.051-2.039-.353-1.99c-.061,0-.82.393-.82.393s.928,1.98.228,3.418c0,0,.265-2.439-.515-3.276l-1.109.648a4.9,4.9,0,0,1,.349,3.715s.186-2.559-.582-3.556l-1.006.783s1.016,2.015.4,3.4c0,0-.081-2.979-.616-3.2a6.151,6.151,0,0,0-1.013,1.094s.7,1.472.265,2.236c0,0-.265-1.985-.491-1.993a6.579,6.579,0,0,0-.967,2.209,4.782,4.782,0,0,1,.753-2.344,2.628,2.628,0,0,0-1.34.694s.135-.93,1.556-1.011a6.122,6.122,0,0,1,.918-1.058,5.754,5.754,0,0,0-2.27.263,2.564,2.564,0,0,1,2.53-.491l.982-.807a8.522,8.522,0,0,0-2.65.025s.908-.775,2.918-.209l1.08-.648a9.818,9.818,0,0,0-2.532-.218,3.884,3.884,0,0,1,2.849.047l.773-.348s-1.163-.228-1.5-.263-.361-.13-.361-.13a4.022,4.022,0,0,1,2.184.245A9.886,9.886,0,0,0,765.4,87.252Z" transform="translate(-583.568 -76.697)" fill="#45c0be"/>
    <ellipse id="Ellipse_58" data-name="Ellipse 58" cx="6.609" cy="1.117" rx="6.609" ry="1.117" transform="translate(256.718 176.913)" fill="#45c0be" opacity="0.1"/>
    <ellipse id="Ellipse_59" data-name="Ellipse 59" cx="6.609" cy="1.117" rx="6.609" ry="1.117" transform="translate(4.862 195.487)" fill="#45c0be" opacity="0.1"/>
    <ellipse id="Ellipse_60" data-name="Ellipse 60" cx="6.609" cy="1.117" rx="6.609" ry="1.117" transform="translate(43.225 196.888)" fill="#45c0be" opacity="0.1"/>
    <ellipse id="Ellipse_61" data-name="Ellipse 61" cx="9.867" cy="1.669" rx="9.867" ry="1.669" transform="translate(238.996 188.326)" fill="#45c0be"/>
    <path id="Path_302" data-name="Path 302" d="M1052.7,793.414a2.881,2.881,0,0,0,.942-1.421,1.267,1.267,0,0,0-.658-1.445c-.6-.231-1.249.189-1.738.611a2.329,2.329,0,0,1-1.691.815,2.569,2.569,0,0,0,.8-2.407,1.011,1.011,0,0,0-.221-.491c-.336-.358-.942-.206-1.345.076-1.276.9-1.632,2.631-1.639,4.191a7.858,7.858,0,0,1-.022-1.718,1.775,1.775,0,0,0-.648-1.529,1.962,1.962,0,0,0-.981-.231,2.042,2.042,0,0,0-1.6.454,1.578,1.578,0,0,0,.064,1.963,6.368,6.368,0,0,0,1.659,1.33,3.682,3.682,0,0,1,1.188,1.131,1.191,1.191,0,0,1,.088.2h3.595A10,10,0,0,0,1052.7,793.414Z" transform="translate(-799.759 -606.146)" fill="#45c0be"/>
    <path id="Path_303" data-name="Path 303" d="M97.91,723.55s1.347,1.762-.623,4.417-3.6,4.908-2.945,6.567c0,0,2.972-4.942,5.4-5.013S100.57,726.522,97.91,723.55Z" transform="translate(-83.355 -556.858)" fill="#45c0be"/>
    <path id="Path_304" data-name="Path 304" d="M98.154,723.55a2.207,2.207,0,0,1,.275.552c2.361,2.773,3.617,5.362,1.35,5.426-2.115.061-4.663,3.841-5.259,4.8a2.28,2.28,0,0,0,.074.218s2.972-4.942,5.4-5.013S100.814,726.522,98.154,723.55Z" transform="translate(-83.599 -556.858)" opacity="0.1"/>
    <path id="Path_305" data-name="Path 305" d="M118.582,731.464c0,.621-.071,1.124-.157,1.124s-.155-.491-.155-1.124.086-.329.174-.329S118.582,730.843,118.582,731.464Z" transform="translate(-101.521 -562.527)" fill="#ffd037"/>
    <path id="Path_306" data-name="Path 306" d="M119.731,734.415c-.545.3-1.018.476-1.06.4s.368-.375.913-.672.329-.081.371,0S120.286,734.118,119.731,734.415Z" transform="translate(-101.821 -564.737)" fill="#ffd037"/>
    <path id="Path_307" data-name="Path 307" d="M71,723.55s-1.347,1.762.621,4.417,3.6,4.908,2.945,6.567c0,0-2.974-4.942-5.4-5.013S68.335,726.522,71,723.55Z" transform="translate(-63.564 -556.858)" fill="#45c0be"/>
    <path id="Path_308" data-name="Path 308" d="M70.987,723.55a2.117,2.117,0,0,0-.275.552c-2.361,2.773-3.62,5.362-1.35,5.426,2.113.061,4.663,3.841,5.256,4.8a2.264,2.264,0,0,1-.071.218s-2.974-4.942-5.4-5.013S68.324,726.522,70.987,723.55Z" transform="translate(-63.553 -556.858)" opacity="0.1"/>
    <path id="Path_309" data-name="Path 309" d="M70.1,731.464c0,.621.069,1.124.155,1.124s.155-.491.155-1.124-.086-.329-.172-.329S70.1,730.843,70.1,731.464Z" transform="translate(-65.172 -562.527)" fill="#ffd037"/>
    <path id="Path_310" data-name="Path 310" d="M65.575,734.415c.545.3,1.021.476,1.063.4s-.368-.375-.913-.672-.331-.081-.371,0S65.03,734.118,65.575,734.415Z" transform="translate(-61.508 -564.737)" fill="#ffd037"/>
    <path id="Path_311" data-name="Path 311" d="M71.85,761.126s3.769-.115,4.908-.925,5.8-1.774,6.081-.491,5.664,6.454,1.409,6.488-9.887-.665-11.021-1.355S71.85,761.126,71.85,761.126Z" transform="translate(-66.492 -583.673)" fill="#a8a8a8"/>
    <path id="Path_312" data-name="Path 312" d="M84.319,772.018c-4.255.034-9.887-.665-11.021-1.354-.864-.525-1.207-2.412-1.323-3.283H71.85s.245,3.041,1.372,3.73,6.766,1.389,11.021,1.355c1.227,0,1.652-.449,1.629-1.094C85.7,771.765,85.234,772.011,84.319,772.018Z" transform="translate(-66.492 -589.932)" opacity="0.2"/>
    <path id="Path_313" data-name="Path 313" d="M404.863,444.092c1.44-.081,8.221-.591,12.528-3.048a4.88,4.88,0,0,1,2.275-.67c1.369-.039,2.945.532,1.936,3.732-1.634,5.234-11.124,11.124-17.013,10.8a19.516,19.516,0,0,1-16.82-10.621,4.908,4.908,0,0,1-.606-2.525c.052-1.62.64-3.649,3.681-1.386,4.108,3.055,11.9,3.634,13.465,3.72A5.189,5.189,0,0,0,404.863,444.092Z" transform="translate(-304.426 -342.41)" fill="#444053"/>
    <path id="Path_314" data-name="Path 314" d="M626.863,444.092c1.44-.081,8.221-.591,12.528-3.048a4.881,4.881,0,0,1,2.275-.67c1.369-.039,2.945.532,1.936,3.732-1.634,5.234-11.124,11.124-17.013,10.8a19.516,19.516,0,0,1-16.82-10.621,4.908,4.908,0,0,1-.606-2.525c.052-1.62.641-3.649,3.681-1.386,4.108,3.055,11.9,3.634,13.465,3.72A5.189,5.189,0,0,0,626.863,444.092Z" transform="translate(-471.947 -342.41)" fill="#444053"/>
  </g>
</svg>
