<svg xmlns="http://www.w3.org/2000/svg" width="181.444" height="165.493" viewBox="0 0 181.444 165.493">
  <g id="Group_412" data-name="Group 412" transform="translate(-0.002 -0.001)">
    <rect id="Rectangle_109" data-name="Rectangle 109" width="158.356" height="14.396" transform="translate(4.336 59.514) rotate(-16.244)" fill="#3f3d56"/>
    <path id="Path_306" data-name="Path 306" d="M338.571,314.489l-22.409-76.911a2.239,2.239,0,0,1,1.524-2.776l148.349-43.223a2.241,2.241,0,0,1,2.776,1.523l19.852,68.138-.614.179L468.2,193.281a1.6,1.6,0,0,0-1.983-1.088L317.865,235.416a1.6,1.6,0,0,0-1.088,1.983l22.409,76.911Z" transform="translate(-316.071 -191.488)" fill="#3f3d56"/>
    <path id="Path_307" data-name="Path 307" d="M740.521,366.255a2.083,2.083,0,0,1-2-1.5l-3.759-12.9a2.082,2.082,0,0,1,1.415-2.578l12.9-3.758a2.082,2.082,0,0,1,2.578,1.415l3.759,12.9A2.082,2.082,0,0,1,754,362.413l-12.9,3.759a2.071,2.071,0,0,1-.581.083Z" transform="translate(-600.762 -296.186)" fill="#45c0be"/>
    <path id="Path_308" data-name="Path 308" d="M369.318,330.417a3.737,3.737,0,0,0-.138-.39,3.839,3.839,0,0,0-7.329,2.134,3.638,3.638,0,0,0,.093.4,3.845,3.845,0,0,0,3.689,2.764,3.757,3.757,0,0,0,1.072-.154A3.843,3.843,0,0,0,369.318,330.417Zm-2.793,4.143a3.2,3.2,0,0,1-3.967-2.175,3.662,3.662,0,0,1-.09-.4,3.2,3.2,0,0,1,6.091-1.772,2.663,2.663,0,0,1,.144.387,3.2,3.2,0,0,1-2.179,3.964Z" transform="translate(-347.164 -284.089)" fill="#45c0be"/>
    <path id="Path_309" data-name="Path 309" d="M350.9,336.661a3.52,3.52,0,0,1,1.346-3.857,3.519,3.519,0,1,0,1.861,6.388A3.52,3.52,0,0,1,350.9,336.661Z" transform="translate(-338.163 -287.592)" fill="#45c0be"/>
    <path id="Path_310" data-name="Path 310" d="M611.667,391.422a1.933,1.933,0,0,0-2.383-1.344l-21.239,5.941-2.287.64h14.364l2.287-.64,7.918-2.214A1.935,1.935,0,0,0,611.667,391.422Z" transform="translate(-499.48 -326.497)" fill="#ccc"/>
    <path id="Path_311" data-name="Path 311" d="M543.958,377.557a1.934,1.934,0,0,0-2.383-1.34L509.7,385.13a1.941,1.941,0,0,0-1.4,2.1h8.25l2.29-.64,23.77-6.648A1.937,1.937,0,0,0,543.958,377.557Z" transform="translate(-446.797 -317.07)" fill="#ccc"/>
    <path id="Path_312" data-name="Path 312" d="M543,408.8H388.48a2.242,2.242,0,0,0-2.239,2.239v91.495a2.242,2.242,0,0,0,2.239,2.239H543a2.242,2.242,0,0,0,2.239-2.239V411.037A2.242,2.242,0,0,0,543,408.8Zm1.6,93.734a1.6,1.6,0,0,1-1.6,1.6H388.48a1.6,1.6,0,0,1-1.6-1.6V411.037a1.6,1.6,0,0,1,1.6-1.6H543a1.6,1.6,0,0,1,1.6,1.6Z" transform="translate(-363.792 -339.277)" fill="#3f3d56"/>
    <path id="Path_313" data-name="Path 313" d="M432.076,431.478a3.839,3.839,0,1,1,3.839-3.839A3.839,3.839,0,0,1,432.076,431.478Zm0-7.038a3.2,3.2,0,1,0,3.2,3.2A3.2,3.2,0,0,0,432.076,424.44Z" transform="translate(-392.353 -349.48)" fill="#45c0be"/>
    <path id="Path_314" data-name="Path 314" d="M416.7,428.319a3.52,3.52,0,0,1,2.371-3.326,3.519,3.519,0,1,0,0,6.653A3.52,3.52,0,0,1,416.7,428.319Z" transform="translate(-382.948 -350.16)" fill="#45c0be"/>
    <path id="Path_315" data-name="Path 315" d="M482.76,546.974a2.882,2.882,0,0,1-2.879-2.879v-8.638a2.879,2.879,0,1,1,5.758,0v8.638a2.882,2.882,0,0,1-2.879,2.879Z" transform="translate(-427.475 -423.459)" fill="#45c0be"/>
    <path id="Path_316" data-name="Path 316" d="M506.76,546.974a2.883,2.883,0,0,1-2.879-2.879v-8.638a2.879,2.879,0,1,1,5.758,0v8.638A2.882,2.882,0,0,1,506.76,546.974Z" transform="translate(-443.797 -423.459)" fill="#45c0be"/>
    <path id="Path_317" data-name="Path 317" d="M530.76,546.974a2.883,2.883,0,0,1-2.879-2.879v-8.638a2.879,2.879,0,0,1,5.758,0v8.638A2.882,2.882,0,0,1,530.76,546.974Z" transform="translate(-460.119 -423.459)" fill="#45c0be"/>
    <path id="Path_318" data-name="Path 318" d="M567.76,546.974a2.883,2.883,0,0,1-2.879-2.879v-8.638a2.879,2.879,0,0,1,5.758,0v8.638a2.882,2.882,0,0,1-2.879,2.879Z" transform="translate(-485.283 -423.459)" fill="#45c0be"/>
    <path id="Path_319" data-name="Path 319" d="M591.76,546.974a2.882,2.882,0,0,1-2.879-2.879v-8.638a2.879,2.879,0,1,1,5.758,0v8.638A2.882,2.882,0,0,1,591.76,546.974Z" transform="translate(-501.605 -423.459)" fill="#45c0be"/>
    <path id="Path_320" data-name="Path 320" d="M615.76,546.974a2.882,2.882,0,0,1-2.879-2.879v-8.638a2.879,2.879,0,1,1,5.758,0v8.638A2.882,2.882,0,0,1,615.76,546.974Z" transform="translate(-517.927 -423.459)" fill="#45c0be"/>
    <path id="Path_321" data-name="Path 321" d="M652.76,546.974a2.882,2.882,0,0,1-2.879-2.879v-8.638a2.879,2.879,0,1,1,5.758,0v8.638A2.882,2.882,0,0,1,652.76,546.974Z" transform="translate(-543.09 -423.459)" fill="#45c0be"/>
    <path id="Path_322" data-name="Path 322" d="M676.76,546.974a2.882,2.882,0,0,1-2.879-2.879v-8.638a2.879,2.879,0,1,1,5.758,0v8.638A2.882,2.882,0,0,1,676.76,546.974Z" transform="translate(-559.412 -423.459)" fill="#45c0be"/>
    <path id="Path_323" data-name="Path 323" d="M700.76,546.974a2.882,2.882,0,0,1-2.879-2.879v-8.638a2.879,2.879,0,0,1,5.758,0v8.638A2.882,2.882,0,0,1,700.76,546.974Z" transform="translate(-575.734 -423.459)" fill="#45c0be"/>
    <path id="Path_324" data-name="Path 324" d="M737.76,546.974a2.883,2.883,0,0,1-2.879-2.879v-8.638a2.879,2.879,0,1,1,5.758,0v8.638A2.882,2.882,0,0,1,737.76,546.974Z" transform="translate(-600.898 -423.459)" fill="#45c0be"/>
    <path id="Path_325" data-name="Path 325" d="M761.76,546.974a2.882,2.882,0,0,1-2.879-2.879v-8.638a2.879,2.879,0,1,1,5.758,0v8.638A2.882,2.882,0,0,1,761.76,546.974Z" transform="translate(-617.22 -423.459)" fill="#45c0be"/>
    <path id="Path_326" data-name="Path 326" d="M785.76,546.974a2.882,2.882,0,0,1-2.879-2.879v-8.638a2.879,2.879,0,0,1,5.758,0v8.638A2.882,2.882,0,0,1,785.76,546.974Z" transform="translate(-633.542 -423.459)" fill="#45c0be"/>
    <path id="Path_327" data-name="Path 327" d="M457.756,669.519H416.346a1.935,1.935,0,1,1,0-3.869h41.409a1.935,1.935,0,1,1,0,3.869Z" transform="translate(-382.95 -513.96)" fill="#e6e6e6"/>
    <path id="Path_328" data-name="Path 328" d="M472.7,643.52H457.846a1.935,1.935,0,0,1,0-3.869H472.7a1.935,1.935,0,1,1,0,3.869Z" transform="translate(-411.174 -496.277)" fill="#e6e6e6"/>
    <rect id="Rectangle_110" data-name="Rectangle 110" width="157.716" height="0.64" transform="translate(22.974 88.645)" fill="#3f3d56"/>
  </g>
</svg>
