<svg xmlns="http://www.w3.org/2000/svg" width="163.161" height="212.393" viewBox="0 0 163.161 212.393">
  <g id="Group_24" data-name="Group 24" transform="translate(0 -0.001)">
    <path id="Path_1" data-name="Path 1" d="M247.94,672.839l-1.865-7.355a95.5,95.5,0,0,0-10.133-3.636l-.235,3.418-.955-3.766c-4.27-1.221-7.176-1.758-7.176-1.758s3.923,14.922,12.155,26.331l9.591,1.685-7.451,1.074a38.65,38.65,0,0,0,3.332,3.531c11.973,11.114,25.309,16.213,29.787,11.389s-1.6-17.744-13.572-28.856a50.884,50.884,0,0,0-13.042-8.387Z" transform="translate(-227.576 -493.917)" fill="#45c0be" opacity="0.35"/>
    <path id="Path_2" data-name="Path 2" d="M326.193,622.987l2.206-7.26a95.517,95.517,0,0,0-6.795-8.35l-1.968,2.8,1.129-3.717c-3.025-3.251-5.234-5.213-5.234-5.213s-4.354,14.8-3.205,28.823l7.339,6.4-6.935-2.932a38.631,38.631,0,0,0,1.027,4.746c4.505,15.7,13.286,26.961,19.612,25.146s7.8-16.016,3.3-31.719a50.88,50.88,0,0,0-6.83-13.921Z" transform="translate(-288.092 -452.054)" fill="#45c0be" opacity="0.35"/>
    <path id="Path_22" data-name="Path 22" d="M481.541,126.778h-1.163V94.908a18.446,18.446,0,0,0-18.446-18.446H394.408a18.446,18.446,0,0,0-18.446,18.446V269.752A18.446,18.446,0,0,0,394.408,288.2h67.523a18.446,18.446,0,0,0,18.446-18.446V149.464h1.163Z" transform="translate(-333.776 -76.461)" fill="#6c6a7d"/>
    <path id="Path_23" data-name="Path 23" d="M475.489,93.335h-8.813a6.545,6.545,0,0,1-6.06,9.016H421.932a6.544,6.544,0,0,1-6.06-9.016H407.64a13.775,13.775,0,0,0-13.775,13.775V281.7a13.775,13.775,0,0,0,13.775,13.775h67.848A13.775,13.775,0,0,0,489.264,281.7h0V107.11a13.775,13.775,0,0,0-13.775-13.775Z" transform="translate(-346.589 -88.538)" fill="#fff"/>
    <path id="Path_6" data-name="Path 6" d="M513.739,320.463a6.948,6.948,0,0,1,3.478-6.02,6.951,6.951,0,1,0,0,12.039A6.946,6.946,0,0,1,513.739,320.463Z" transform="translate(-427.41 -246.117)" fill="#ccc"/>
    <path id="Path_7" data-name="Path 7" d="M544.477,320.462a6.947,6.947,0,0,1,3.478-6.02,6.951,6.951,0,1,0,0,12.039,6.947,6.947,0,0,1-3.477-6.019Z" transform="translate(-449.409 -246.117)" fill="#ccc"/>
    <circle id="Ellipse_1" data-name="Ellipse 1" cx="6.951" cy="6.951" r="6.951" transform="translate(96.657 67.394)" fill="#45c0be"/>
    <path id="Path_8" data-name="Path 8" d="M527.222,305.019H486.71a1.457,1.457,0,0,1-1.455-1.455V263.052a1.456,1.456,0,0,1,1.455-1.455h40.513a1.456,1.456,0,0,1,1.455,1.455v40.513A1.456,1.456,0,0,1,527.222,305.019Zm-40.513-42.84a.874.874,0,0,0-.873.873v40.513a.874.874,0,0,0,.873.873h40.513a.874.874,0,0,0,.873-.873V263.052a.874.874,0,0,0-.873-.873Z" transform="translate(-411.997 -208.963)" fill="#ccc"/>
    <rect id="Rectangle_1" data-name="Rectangle 1" width="62.134" height="0.582" transform="translate(62.137 127.111)" fill="#ccc"/>
    <circle id="Ellipse_2" data-name="Ellipse 2" cx="1.962" cy="1.962" r="1.962" transform="translate(62.137 119.553)" fill="#45c0be"/>
    <rect id="Rectangle_2" data-name="Rectangle 2" width="62.134" height="0.582" transform="translate(62.137 146.732)" fill="#ccc"/>
    <circle id="Ellipse_3" data-name="Ellipse 3" cx="1.962" cy="1.962" r="1.962" transform="translate(62.137 139.174)" fill="#45c0be"/>
    <path id="Path_121" data-name="Path 121" d="M608.037,647.405H588.4a1.281,1.281,0,0,1-1.279-1.279v-6.882a1.281,1.281,0,0,1,1.279-1.279h19.636a1.281,1.281,0,0,1,1.279,1.279v6.882A1.281,1.281,0,0,1,608.037,647.405Z" transform="translate(-484.904 -478.329)" fill="#45c0be"/>
    <circle id="Ellipse_7" data-name="Ellipse 7" cx="1.962" cy="1.962" r="1.962" transform="translate(68.538 119.553)" fill="#45c0be"/>
    <circle id="Ellipse_8" data-name="Ellipse 8" cx="1.962" cy="1.962" r="1.962" transform="translate(74.938 119.553)" fill="#45c0be"/>
    <circle id="Ellipse_9" data-name="Ellipse 9" cx="1.962" cy="1.962" r="1.962" transform="translate(68.538 139.174)" fill="#45c0be"/>
    <circle id="Ellipse_10" data-name="Ellipse 10" cx="1.962" cy="1.962" r="1.962" transform="translate(74.938 139.174)" fill="#45c0be"/>
    <path id="Path_88" data-name="Path 88" d="M405.376,821.795h-155.9c-.334,0-.6-.155-.6-.346s.27-.347.6-.347h155.9c.334,0,.6.155.6.347S405.709,821.795,405.376,821.795Z" transform="translate(-242.819 -609.402)" fill="#ccc"/>
    <path id="Path_122" data-name="Path 122" d="M781.929,544.251a2.865,2.865,0,0,1,.4.224l12.751-5.442.455-3.359,5.1-.031-.3,7.7L783.5,547.8a3.019,3.019,0,0,1-.127.344,2.91,2.91,0,1,1-1.444-3.89Z" transform="translate(-657.392 -405.097)" fill="#ffb8b8"/>
    <path id="Path_123" data-name="Path 123" d="M624.031,701.177h-3.485l-1.658-13.444h5.144Z" transform="translate(-478.939 -492.211)" fill="#ffb8b8"/>
    <path id="Path_124" data-name="Path 124" d="M605.308,731.518h6.722v4.232H601.076A4.232,4.232,0,0,1,605.308,731.518Z" transform="translate(-466.191 -523.548)" fill="#2f2e41"/>
    <path id="Path_125" data-name="Path 125" d="M668.455,697.876l-3.469.342L662.018,685l5.119-.5Z" transform="translate(-509.807 -489.895)" fill="#ffb8b8"/>
    <path id="Path_126" data-name="Path 126" d="M4.232,0h6.722V4.232H0A4.232,4.232,0,0,1,4.232,0Z" transform="translate(148.391 207.99) rotate(-5.625)" fill="#2f2e41"/>
    <circle id="Ellipse_21" data-name="Ellipse 21" cx="6.983" cy="6.983" r="6.983" transform="translate(139.08 102.352)" fill="#ffb8b8"/>
    <path id="Path_127" data-name="Path 127" d="M826.643,678.212a1.271,1.271,0,0,1-1.255-1.051c-1.8-10.015-7.7-42.76-7.842-43.667a.4.4,0,0,1,0-.063v-2.442a.423.423,0,0,1,.079-.248l.779-1.091a.42.42,0,0,1,.325-.178c4.441-.208,18.987-.818,19.689.059h0c.706.882.456,3.556.4,4.083l0,.055,6.535,41.79a1.283,1.283,0,0,1-1.056,1.46l-4.081.672a1.285,1.285,0,0,1-1.429-.879c-1.262-4.034-5.5-17.6-6.962-22.854a.142.142,0,0,0-.279.039c.073,5.005.25,17.775.312,22.186l.007.475a1.285,1.285,0,0,1-1.164,1.29l-3.936.358A1.187,1.187,0,0,1,826.643,678.212Z" transform="translate(-685.815 -471.965)" fill="#2f2e41"/>
    <path id="Path_99" data-name="Path 99" d="M828.034,493.618a5.839,5.839,0,0,0-2.366,3.41,32.314,32.314,0,0,0-1.389,7.721l-.442,7.847-5.474,20.8c4.745,4.014,7.481,3.1,13.868-.182s7.117,1.095,7.117,1.095l1.277-17.7,1.825-19.342a8.585,8.585,0,0,0-1.382-1.329A14.118,14.118,0,0,0,829,493.384Z" transform="translate(-686.403 -374.556)" fill="#45c0be"/>
    <path id="Path_128" data-name="Path 128" d="M836.018,555.809a2.984,2.984,0,0,1,.427.2l12.608-6.311.209-3.419,5.2-.359.279,7.793-16.849,5.572a2.984,2.984,0,1,1-1.874-3.477Z" transform="translate(-696.165 -412.454)" fill="#ffb8b8"/>
    <path id="Path_101" data-name="Path 101" d="M885.978,507.463c3.1,1.095,3.649,12.957,3.649,12.957-3.649-2.007-8.029,1.277-8.029,1.277s-.912-3.1-2.007-7.117a6.974,6.974,0,0,1,1.46-6.569A4.969,4.969,0,0,1,885.978,507.463Z" transform="translate(-730.022 -384.66)" fill="#45c0be"/>
    <path id="Path_102" data-name="Path 102" d="M856.658,438.346c-.87-.7-2.057.569-2.057.569l-.7-6.264a24.87,24.87,0,0,1-7.134-.174c-2.784-.695-3.219,2.523-3.219,2.523a22.348,22.348,0,0,1-.087-3.915c.174-1.566,2.436-3.132,6.438-4.176s6.09,3.48,6.09,3.48C858.777,431.781,857.528,439.042,856.658,438.346Z" transform="translate(-704.334 -327.165)" fill="#2f2e41"/>
  </g>
</svg>
