<svg xmlns="http://www.w3.org/2000/svg" xmlns:xlink="http://www.w3.org/1999/xlink" width="25" height="25" viewBox="0 0 25 25">
  <defs>
    <clipPath id="clip-path">
      <rect id="Rectangle_277" data-name="Rectangle 277" width="22.062" height="23.04" fill="none"/>
    </clipPath>
  </defs>
  <g id="Group_893" data-name="Group 893" transform="translate(-5489 -4141)">
    <rect id="Rectangle_276" data-name="Rectangle 276" width="25" height="25" transform="translate(5489 4141)" fill="none"/>
    <g id="Group_892" data-name="Group 892" transform="translate(5490.469 4141.98)">
      <g id="Group_891" data-name="Group 891" clip-path="url(#clip-path)">
        <path id="Path_482" data-name="Path 482" d="M21.159,91.045H.905c-.041-.017-.081-.037-.122-.051a1.1,1.1,0,0,1,.329-2.16c.148,0,.3,0,.469,0V77.311a2.9,2.9,0,0,0,1.47-.438.294.294,0,0,1,.217.017,7.945,7.945,0,0,0,.893.351,6,6,0,0,0,.922.089v.256q0,4.072,0,8.145a.891.891,0,0,0,.995,1q1.429,0,2.858,0c.065,0,.13-.008.194-.013V84.338c-.375.626-.718,1.205-1.069,1.78a.709.709,0,1,1-1.21-.728q1.082-1.815,2.169-3.627a.757.757,0,0,1,.7-.4q1.316.009,2.633,0a.741.741,0,0,1,.683.393q1.1,1.832,2.192,3.665a.7.7,0,0,1-.217,1,.708.708,0,0,1-.991-.271c-.323-.523-.633-1.053-.949-1.58-.037-.061-.077-.12-.136-.211v2.368c1.095,0,2.174,0,3.253,0a.559.559,0,0,0,.153-.029.891.891,0,0,0,.639-.966q0-4.083,0-8.167v-.284a2.1,2.1,0,0,0,1.409-.2.962.962,0,0,1,1.072,0,4.753,4.753,0,0,0,1.036.287v11.47c.2,0,.372-.009.544,0a1.1,1.1,0,0,1,.983,1.376,1.185,1.185,0,0,1-.866.829" transform="translate(0 -68.005)" fill="#fff"/>
        <path id="Path_483" data-name="Path 483" d="M18.956,6.8a1.6,1.6,0,0,1-1.5,1.322c-.714.054-1.2-.333-1.646-1.317a1.56,1.56,0,0,1-1.572,1.314c-.777.009-1.248-.416-1.575-1.34a1.568,1.568,0,0,1-1.6,1.338c-.759,0-1.236-.431-1.547-1.338A1.576,1.576,0,0,1,7.863,8.115c-.728-.01-1.207-.449-1.5-1.319a1.59,1.59,0,0,1-3.139-.023c-.048.132-.077.217-.109.3a1.57,1.57,0,0,1-3.05-.612,2.142,2.142,0,0,1,.1-.5Q.826,3.718,1.5,1.483A1.9,1.9,0,0,1,3.489,0H18.673a1.9,1.9,0,0,1,2,1.493c.452,1.513.909,3.025,1.355,4.539a1.572,1.572,0,0,1-2.948,1.093c-.04-.1-.079-.2-.128-.328" transform="translate(-0.055 0)" fill="#fff"/>
        <path id="Path_484" data-name="Path 484" d="M84.506,84.817a1.433,1.433,0,0,1-1.333-.759,1.791,1.791,0,0,1,.118-2.03,1.336,1.336,0,0,1,2.059-.169,1.8,1.8,0,0,1-.315,2.777,2.545,2.545,0,0,1-.53.182" transform="translate(-73.363 -72.069)" fill="#fff"/>
      </g>
    </g>
  </g>
</svg>
